<svg width="17" height="16" viewBox="0 0 17 16" fill="none" xmlns="http://www.w3.org/2000/svg">
<path d="M11.5769 16C10.7237 16 9.69868 15.9638 8.37819 15.8854C7.24763 15.8191 6.54819 15.7045 5.74022 15.5719L5.27293 15.4965C2.92438 15.1227 1.15469 13.1299 1.06123 10.7602L0.883341 6.44C0.844148 5.48732 0.612007 4.48338 0.171842 3.37091C0.0572792 3.08149 0 2.77699 0 2.46646C0 1.76401 0.298475 1.09472 0.823054 0.627422C1.34462 0.160125 2.04707 -0.062972 2.74953 0.0154134C3.88611 0.142036 4.79961 1.06156 4.9202 2.20116C4.94733 2.46043 4.93527 2.71669 4.88402 2.96692C4.69107 3.90152 4.74534 4.92957 5.04682 6.01491C5.32419 7.01885 5.49603 7.88711 5.55331 8.59861C5.55934 8.68303 5.6136 8.72523 5.64375 8.74332C5.69802 8.77347 5.76133 8.77649 5.81861 8.74935C6.29495 8.52626 6.80445 8.41471 7.33205 8.41471C8.20936 8.41471 9.05351 8.73729 9.71376 9.31915C9.86148 9.45181 10.0333 9.52416 10.2112 9.53019C10.3981 9.53924 10.5851 9.46387 10.7358 9.32518C11.4322 8.68906 12.3366 8.33632 13.2803 8.33632C14.4742 8.33632 15.5746 8.88803 16.2981 9.84675C16.4006 9.98242 16.3735 10.1754 16.2378 10.2749C16.1022 10.3774 15.9092 10.3502 15.8097 10.2146C15.2038 9.4096 14.2812 8.94833 13.2803 8.94833C12.4904 8.94833 11.7337 9.24077 11.1488 9.77439C10.8775 10.0216 10.5338 10.1512 10.1961 10.1392C9.87355 10.1271 9.56002 9.99749 9.30677 9.77439C8.76109 9.29202 8.06163 9.0237 7.33205 9.0237C6.8949 9.0237 6.46981 9.11716 6.07788 9.30107C5.83971 9.41261 5.56236 9.40055 5.33625 9.2679C5.11014 9.13826 4.96541 8.90311 4.94431 8.64082C4.89004 7.96851 4.72725 7.13642 4.45893 6.17168C4.13032 4.98987 4.07304 3.86836 4.28408 2.83729C4.32327 2.65037 4.3323 2.45742 4.3112 2.26146C4.22075 1.40525 3.53638 0.714852 2.68319 0.621392C2.14655 0.561096 1.63103 0.723896 1.23308 1.07965C0.841148 1.43238 0.615031 1.93586 0.615031 2.46345C0.615031 2.69861 0.657236 2.92773 0.744666 3.1448C1.20895 4.32058 1.45616 5.39084 1.49837 6.41588L1.67925 10.7361C1.76065 12.8163 3.31331 14.5619 5.37243 14.8905L5.84274 14.9659C6.63563 15.0956 7.31697 15.2101 8.41738 15.2734C12.611 15.5176 13.7627 15.3609 15.9876 14.8514C16.1504 14.8122 16.3162 14.9177 16.3554 15.0805C16.3916 15.2463 16.2891 15.4091 16.1263 15.4483C14.5435 15.8101 13.4883 16 11.5769 16Z" fill="#003F3C"/>
<path d="M14.0981 7.15453C13.9293 7.15453 13.7906 7.01585 13.7906 6.84702V3.28652C13.7906 3.11769 13.9293 2.979 14.0981 2.979C14.267 2.979 14.4056 3.11467 14.4056 3.28652V6.84702C14.4056 7.01585 14.27 7.15453 14.0981 7.15453Z" fill="#003F3C"/>
<path d="M14.0974 7.15424C14.0402 7.15424 13.9829 7.13917 13.9316 7.10601L13.1056 6.57841C12.9639 6.48797 12.9217 6.29803 13.0121 6.15332C13.1025 6.01163 13.2925 5.96942 13.4342 6.05986L14.0974 6.48194L14.7607 6.05986C14.9024 5.96942 15.0923 6.01163 15.1828 6.15332C15.2732 6.29502 15.231 6.48495 15.0893 6.57841L14.2633 7.10601C14.212 7.13615 14.1547 7.15424 14.0974 7.15424Z" fill="#003F3C"/>
<path d="M11.2185 7.80272C11.0496 7.80272 10.9109 7.66404 10.9109 7.49521V3.93471C10.9109 3.76588 11.0496 3.6272 11.2185 3.6272C11.3873 3.6272 11.526 3.76588 11.526 3.93471V7.49521C11.526 7.66404 11.3873 7.80272 11.2185 7.80272Z" fill="#003F3C"/>
<path d="M11.2181 7.80292C11.1609 7.80292 11.1036 7.78785 11.0523 7.75469L10.2263 7.22709C10.0846 7.13665 10.0424 6.94672 10.1328 6.802C10.2232 6.66031 10.4132 6.6181 10.5549 6.70854L11.2151 7.13062L11.8784 6.70854C12.0201 6.6181 12.21 6.66031 12.3005 6.802C12.3909 6.9437 12.3487 7.13363 12.207 7.22709L11.384 7.75469C11.3327 7.78785 11.2754 7.80292 11.2181 7.80292Z" fill="#003F3C"/>
<path d="M8.3364 7.15453C8.16757 7.15453 8.0289 7.01585 8.0289 6.84702V3.28652C8.0289 3.11769 8.16757 2.979 8.3364 2.979C8.50523 2.979 8.64393 3.11467 8.64393 3.28652V6.84702C8.64393 7.01585 8.50825 7.15453 8.3364 7.15453Z" fill="#003F3C"/>
<path d="M8.33572 7.15424C8.27844 7.15424 8.22115 7.13917 8.1699 7.10601L7.34386 6.57841C7.20216 6.48797 7.15993 6.29803 7.25038 6.15332C7.34082 6.01163 7.53078 5.96942 7.67549 6.05986L8.33572 6.48194L8.99597 6.05986C9.13767 5.96942 9.3276 6.01163 9.42105 6.15332C9.5115 6.29502 9.4693 6.48495 9.3276 6.57841L8.50153 7.10601C8.4533 7.13615 8.393 7.15424 8.33572 7.15424Z" fill="#003F3C"/>
</svg>
