<svg width="19" height="16" viewBox="0 0 19 16" fill="none" xmlns="http://www.w3.org/2000/svg">
<path d="M14.1875 0.593935C14.297 0.404994 14.2328 0.163518 14.0439 0.0536983C13.8549 -0.0561213 13.6128 0.00780918 13.503 0.197066C13.4229 0.335052 11.5642 3.6135 13.2504 7.46953C13.3947 7.79899 13.534 8.1335 13.665 8.47119H4.78641C4.91775 8.13318 5.0567 7.79899 5.20101 7.46953C6.88755 3.61318 5.02884 0.334736 4.94877 0.197066C4.83863 0.00780918 4.59653 -0.0561213 4.4079 0.0536983C4.21896 0.163518 4.15471 0.405306 4.26453 0.594563C4.28226 0.624945 6.00361 3.66002 4.47626 7.15273C4.25789 7.65214 4.04648 8.17275 3.85691 8.71045C3.85596 8.71299 3.85532 8.71583 3.85406 8.71804C3.50498 9.7099 3.23375 10.7625 3.14671 11.8658C3.11538 11.9383 3.09924 12.0177 3.11665 12.1009C3.11886 12.1117 3.12614 12.1196 3.12931 12.13C3.06949 13.2868 3.21666 14.4964 3.69613 15.7459C3.75658 15.9035 3.90659 16 4.06547 16C4.11262 16 4.16073 15.9918 4.20693 15.9737C4.41138 15.8956 4.51297 15.6667 4.4348 15.4629C4.02242 14.3882 3.87462 13.351 3.90374 12.3487C4.96617 12.1807 7.09484 12.0731 8.06739 13.0229C8.15569 13.1418 8.41584 13.4514 8.78517 13.6001V15.6044C8.78517 15.8228 8.96241 16 9.18078 16C9.39915 16 9.57638 15.8228 9.57638 15.6044V13.6004C9.95046 13.4501 10.2116 13.1362 10.2973 13.02C11.3924 11.9535 13.7938 12.2421 14.5461 12.3649C14.5733 13.3621 14.4255 14.3935 14.0151 15.4626C13.9369 15.6667 14.0385 15.8956 14.2426 15.9737C14.2891 15.9918 14.3372 16 14.3844 16C14.5433 16 14.6936 15.9035 14.7537 15.7462C15.9814 12.5472 15.0493 9.60705 13.9752 7.15273C12.4567 3.67964 14.1648 0.634128 14.1875 0.593935ZM9.72039 12.4769C9.71153 12.4858 9.70835 12.4975 9.70012 12.5073C9.69221 12.5165 9.68145 12.5219 9.67417 12.532C9.57321 12.6773 9.3463 12.8921 9.18078 12.8921C9.01652 12.8921 8.78992 12.6773 8.68833 12.532C8.68137 12.5219 8.67029 12.5165 8.6627 12.507C8.65479 12.4978 8.65162 12.4858 8.64244 12.4769C7.4069 11.2414 5.0377 11.3949 3.96672 11.5408C4.06167 10.7606 4.25124 10.0014 4.49905 9.26271H13.9514C14.2002 10.0055 14.3907 10.7689 14.485 11.5537C13.4634 11.405 10.992 11.2053 9.72039 12.4769Z" fill="#003F3C"/>
<path d="M8.89973 6.86892C8.82694 6.9414 8.7858 7.04615 8.7858 7.14743C8.7858 7.25187 8.82694 7.35314 8.89973 7.42909C8.97568 7.50188 9.07696 7.54303 9.1814 7.54303C9.28584 7.54303 9.38711 7.50188 9.4599 7.42909C9.53585 7.35345 9.577 7.25187 9.577 7.14743C9.577 7.04615 9.53585 6.94488 9.4599 6.86892C9.314 6.72334 9.04847 6.72017 8.89973 6.86892Z" fill="#003F3C"/>
<path d="M14.9812 4.11739H16.8871L16.7196 3.9756C16.5528 3.83445 16.532 3.58475 16.6734 3.41796C16.8149 3.25149 17.0643 3.2306 17.2311 3.37144L18.222 4.21075C18.2264 4.21455 18.228 4.21961 18.2321 4.2234C18.253 4.24271 18.2679 4.26645 18.284 4.28924C18.2976 4.30854 18.3131 4.32594 18.3233 4.34747C18.3328 4.36867 18.3362 4.39178 18.3422 4.41393C18.3492 4.44178 18.3578 4.46869 18.359 4.49717C18.3593 4.50287 18.3622 4.50729 18.3622 4.51299C18.3622 4.52217 18.3574 4.53008 18.3568 4.53894C18.3578 4.65193 18.3153 4.76491 18.2223 4.84372L17.2314 5.68334C17.157 5.74632 17.0662 5.77734 16.9757 5.77734C16.8633 5.77734 16.7519 5.72986 16.6737 5.63776C16.5323 5.47098 16.5528 5.22159 16.7196 5.08012L16.9222 4.90859H14.9815C14.7628 4.90859 14.5859 4.73136 14.5859 4.51299C14.5856 4.2943 14.7625 4.11739 14.9812 4.11739Z" fill="#003F3C"/>
<path d="M0.00461793 4.5358C0.00398493 4.52789 -0.000133991 4.52093 -0.000133991 4.51302C-0.000133991 4.50732 0.00271726 4.5032 0.00303388 4.49751C0.00398326 4.47282 0.0109458 4.44972 0.0166423 4.42535C0.016959 4.4244 0.0172799 4.42377 0.0172799 4.42282C0.0182292 4.41965 0.0191796 4.41649 0.020129 4.41364C0.0261421 4.39149 0.0289876 4.3687 0.0387986 4.34781C0.0489259 4.32598 0.0650613 4.30794 0.0789866 4.288C0.0944943 4.26585 0.109061 4.24274 0.129316 4.22375C0.133747 4.21995 0.135642 4.21458 0.139757 4.21078L1.13035 3.37147C1.29745 3.23063 1.54652 3.25152 1.68831 3.41767C1.82946 3.58446 1.80889 3.83385 1.6421 3.97563L1.47468 4.11741H3.38118C3.59955 4.11741 3.77678 4.29465 3.77678 4.51302C3.77678 4.73139 3.59955 4.90862 3.38118 4.90862H1.43955L1.64179 5.07983C1.80857 5.22099 1.82946 5.4707 1.68799 5.63748C1.60982 5.7299 1.4981 5.77737 1.38575 5.77737C1.29556 5.77737 1.20472 5.74635 1.13035 5.68369L0.13881 4.84406C0.0448146 4.7643 0.00271893 4.65005 0.00461793 4.5358Z" fill="#003F3C"/>
</svg>
