<svg width="17" height="16" viewBox="0 0 17 16" fill="none" xmlns="http://www.w3.org/2000/svg">
<path d="M11.9702 1.08325C11.1841 0.377224 10.1679 -0.00752239 9.10855 0.000111454C8.03109 0.00796341 7.02735 0.42259 6.28228 1.16765C5.20155 2.24861 5.04451 3.63033 4.96032 4.37278C4.95966 4.3778 4.95923 4.38281 4.95857 4.38783C4.24906 4.4537 2.84422 4.6055 1.7179 5.73182C0.973051 6.47688 0.558424 7.48041 0.550572 8.55809C0.542938 9.61745 0.927683 10.6336 1.63371 11.4193C2.53908 12.4274 3.59495 12.7393 4.31035 12.8863C5.32216 13.0941 7.24807 13.0204 8.71312 12.8821C9.5788 12.8003 10.3636 12.6902 10.9826 12.5635C11.3455 12.4891 11.6201 12.4154 11.8323 12.3434C11.8709 12.3303 11.9357 12.2974 12.0413 12.4029C12.0413 12.4029 13.6943 14.0606 14.232 14.5982C14.3633 14.7295 14.1864 14.7099 14.1864 14.7099H13.1966C12.8064 14.7099 12.4869 15.0002 12.4869 15.3548C12.4869 15.7097 12.8062 16 13.1966 16H15.8414C16.2316 16 16.5509 15.6807 16.5511 15.2903V12.6455C16.5511 12.2551 16.2608 11.9357 15.9059 11.9357C15.5511 11.9357 15.2608 12.2551 15.2608 12.6453V13.6691C15.2608 13.6691 15.2152 13.7519 15.136 13.6728C14.5942 13.131 12.9364 11.4731 12.9364 11.4731C12.8537 11.3905 12.8845 11.3143 12.8989 11.2733C13.1298 10.6153 13.3126 9.57318 13.4439 8.15699C13.5789 6.7011 13.6481 4.78086 13.4369 3.75902C13.2768 2.98298 12.9654 1.97706 11.9702 1.08325ZM12.1734 4.02032C12.3161 4.71063 12.3154 6.27143 12.1715 7.9042C12.0068 9.77231 11.7472 10.7959 11.6085 11.0469C11.356 11.1841 10.3273 11.4426 8.45204 11.6108C6.81142 11.758 5.2515 11.7628 4.57034 11.6228C3.69375 11.4426 3.10268 11.1239 2.59361 10.5573C1.58201 9.43141 1.59837 7.67605 2.63025 6.64418C3.45187 5.82256 4.49792 5.72593 5.12325 5.66835C5.48378 5.63498 5.74442 5.61099 5.95315 5.40226C6.16625 5.18917 6.19635 4.9222 6.24237 4.51826C6.31347 3.89119 6.43256 2.84187 7.19464 2.07979C8.22651 1.04791 9.98208 1.03133 11.1082 2.04293C11.6737 2.55112 11.9924 3.14242 12.1734 4.02032Z" fill="#003F3C"/>
</svg>
