<svg width="22" height="22" viewBox="0 0 22 22" fill="none" xmlns="http://www.w3.org/2000/svg">
<path d="M16.9472 7.62727C16.8169 7.61884 16.7064 7.6144 16.6108 7.61291C16.2674 7.60759 16.1262 7.6425 16.0391 7.68515C16.0333 7.68798 16.0277 7.69089 16.0223 7.69376C15.9159 7.75132 15.8473 7.85722 15.834 7.98438C15.8052 8.25971 16.0492 8.61724 16.1938 8.73999C16.2083 8.75231 16.2252 8.76773 16.2421 8.78547C16.2927 8.83876 16.3436 8.91336 16.3329 8.99083C16.3227 9.06432 16.2608 9.14397 16.1592 9.21926C16.1388 9.23431 16.1169 9.24922 16.0935 9.2638C16.0466 9.29307 15.9938 9.32127 15.9357 9.34776C15.7546 9.43046 15.4644 9.40874 15.2138 9.29381C15.0684 9.22713 14.9913 9.15299 14.9657 9.11414C14.973 9.10766 14.9838 9.09919 14.9995 9.08923C15.4573 8.79936 15.5235 8.49147 15.4985 8.2843C15.4675 8.02772 15.269 7.80189 14.9925 7.709C14.9139 7.6826 14.7348 7.62245 12.9713 7.61898L12.953 7.01534C12.9526 7.002 12.9513 6.98871 12.9489 6.97561C12.9232 6.82928 12.942 6.63424 12.9854 6.59613C12.9892 6.59289 13.0321 6.58215 13.1316 6.61341C13.1743 6.62683 13.2275 6.66819 13.2839 6.71195C13.4339 6.82845 13.746 7.07081 14.1302 6.73741C14.4475 6.46194 14.4836 5.95221 14.3617 5.55393C14.3471 5.50633 14.3307 5.45998 14.3118 5.41613C14.2267 5.2191 14.0347 4.88042 13.7056 4.82605C13.6542 4.81758 13.606 4.81661 13.5604 4.8204C13.3176 4.84055 13.1531 5.01308 13.0485 5.12366C13.0241 5.14936 13.0007 5.17413 12.9791 5.19479C12.9697 5.16149 12.9603 5.11755 12.9531 5.06143L12.9728 4.28256L12.9789 4.04094C12.982 3.92184 12.9087 3.81409 12.7968 3.77306C12.1458 3.5344 11.4549 3.37173 10.7434 3.28963C10.3981 3.24981 10.0569 3.2286 9.66943 3.223C9.54584 3.22119 9.4347 3.22119 9.33746 3.22119C9.03499 3.22119 8.4571 3.28324 7.74238 3.45744C7.04038 3.6285 5.99517 3.95958 5.00238 4.5654C3.94721 5.20933 3.18969 6.01583 2.75099 6.96255C2.74701 6.97112 2.74349 6.97992 2.74039 6.98881C2.72571 7.03136 2.38096 8.03874 2.38096 8.69739C2.38096 8.88053 2.39495 9.06654 2.40847 9.24644C2.44046 9.67301 2.47075 10.076 2.31433 10.3497C2.03094 10.8456 1.37057 11.7889 1.07375 12.0264C0.911961 12.1558 0.537164 12.5058 0.550824 12.96C0.55652 13.1509 0.636349 13.4299 0.983827 13.6752C1.21461 13.8381 1.40794 13.9517 1.54913 14.0348C1.64072 14.0886 1.7425 14.1485 1.78825 14.1861C1.76394 14.2511 1.7024 14.3627 1.66299 14.4343C1.5237 14.687 1.3797 14.9484 1.54149 15.1641C1.61359 15.2602 1.76431 15.3713 1.93786 15.4633C1.78311 15.6156 1.77297 15.7218 1.76852 15.7688C1.75718 15.8874 1.8051 15.999 1.90003 16.075L1.9148 16.0868C2.02848 16.1775 2.37434 16.4535 2.32192 16.6456C2.31298 16.6785 2.3003 16.7198 2.28567 16.7678C2.15805 17.1859 1.92059 17.9642 2.24709 18.5219C2.39833 18.7802 2.64426 18.9482 2.97817 19.0212C4.11785 19.2706 6.4592 18.9023 6.55829 18.8865C6.57181 18.8843 6.58515 18.8812 6.5982 18.877C6.63905 18.8642 6.99931 18.7607 7.11317 19.0833C7.31266 19.6484 7.75469 21.4816 7.75918 21.5001L8.02933 21.4351L8.29938 21.3701C8.281 21.2936 7.8461 19.4903 7.63717 18.8983C7.42425 18.2952 6.82103 18.2339 6.45276 18.3405C6.23331 18.3744 4.08645 18.6949 3.09685 18.4784C2.9183 18.4394 2.79711 18.3618 2.72654 18.2412C2.52303 17.8936 2.72164 17.2428 2.81707 16.93C2.8336 16.8758 2.84782 16.8291 2.85796 16.7918C2.97613 16.3587 2.65805 15.9969 2.42032 15.7851C2.49492 15.7316 2.59286 15.6706 2.68496 15.622C2.79799 15.5625 2.85588 15.4335 2.82527 15.3095C2.79461 15.1854 2.68334 15.0983 2.55553 15.0983C2.43945 15.0983 2.18273 14.9756 2.05293 14.8861C2.08025 14.8284 2.12119 14.7541 2.14962 14.7025C2.26802 14.4876 2.3799 14.2847 2.34753 14.0911C2.30484 13.8346 2.09563 13.7116 1.83071 13.5558C1.69059 13.4734 1.51616 13.3708 1.30422 13.2213C1.17567 13.1305 1.10899 13.037 1.10622 12.9434C1.10209 12.8061 1.22559 12.6165 1.42086 12.4603C1.81673 12.1436 2.52701 11.0975 2.79679 10.6254C3.03758 10.2039 2.99947 9.69607 2.96256 9.20486C2.94923 9.02737 2.93663 8.85969 2.93663 8.69744C2.93663 8.51277 2.97141 8.28685 3.01836 8.06588C3.65659 8.05518 4.38651 8.07338 4.53913 8.12459C4.6229 8.15275 4.66809 8.1922 4.68129 8.20993C4.67258 8.2311 4.63054 8.30782 4.44703 8.42405C4.15924 8.60636 4.06876 8.90044 4.21647 9.17332C4.3935 9.50038 4.91629 9.7577 5.41607 9.7577C5.58888 9.7577 5.75905 9.72691 5.91107 9.65759C6.25207 9.50209 6.44373 9.28849 6.48068 9.02274C6.52 8.74013 6.36969 8.44193 6.04573 8.15877C6.04745 8.13765 6.05689 8.10755 6.06782 8.0888C6.21878 8.05462 6.76153 8.05597 7.50135 8.14089C7.66486 8.82061 7.73918 9.49506 7.66393 9.65476C7.64156 9.63383 7.61688 9.60568 7.60049 9.58109C7.59276 9.5691 7.5841 9.55766 7.57452 9.54701C7.54636 9.51538 7.2884 9.23843 6.9443 9.26418C6.79853 9.27501 6.58756 9.3447 6.41048 9.61531C6.11829 10.0617 6.21549 10.7034 6.48962 11.0226C6.68952 11.2555 6.9706 11.3207 7.24153 11.1972C7.28788 11.176 7.33549 11.1512 7.38591 11.1249C7.46991 11.081 7.69288 10.9645 7.75442 10.9864C7.75442 10.9864 7.75696 10.9882 7.76108 10.9934C7.77571 11.0143 7.89565 11.2304 7.60202 12.3542C7.58091 12.4349 7.59721 12.5209 7.64638 12.5882C7.69561 12.6556 7.77247 12.6973 7.85578 12.7019C7.98604 12.7089 8.15639 12.6974 8.35356 12.6839C8.5474 12.6707 8.76749 12.6555 8.96767 12.6585C9.26463 12.6625 9.33631 12.6722 9.35117 12.675C9.40039 12.6851 9.44091 12.697 9.47245 12.7087C9.45448 12.7263 9.43392 12.7447 9.41216 12.7643C9.30964 12.8565 9.16933 12.9828 9.12136 13.1962C9.06732 13.4364 9.11751 13.6654 9.26643 13.8585C9.51472 14.1804 9.99774 14.3378 10.3662 14.3509C10.388 14.3517 10.4094 14.3521 10.4307 14.3521C10.7915 14.3521 11.0862 14.2409 11.2654 14.0358C11.4014 13.8801 11.465 13.6649 11.4445 13.43C11.4248 13.2052 11.3287 12.9765 11.1886 12.8077C11.2842 12.7923 11.3908 12.7835 11.4562 12.7874C11.4826 12.7891 11.537 12.7888 11.7576 12.7871C11.9891 12.7852 12.5156 12.7811 12.6453 12.79C12.6455 12.7901 12.6456 12.7901 12.6458 12.7901C12.6577 12.7933 12.6699 12.7956 12.6824 12.7971C12.6836 12.7972 12.6848 12.7973 12.6859 12.7973C12.6964 12.7985 12.7071 12.7989 12.718 12.7988C12.7197 12.7988 12.7214 12.7991 12.7231 12.7991C12.7249 12.799 12.7266 12.7987 12.7284 12.7987C12.7303 12.7986 12.7322 12.7987 12.7341 12.7986C13.5994 12.7432 14.6415 12.716 14.8155 12.7683C14.8249 12.7715 14.834 12.7751 14.8426 12.7791C14.9031 12.807 14.943 12.8523 14.9467 12.8835C14.9515 12.9228 14.9053 13.0237 14.702 13.1525C14.4535 13.3099 14.3501 13.5495 14.4256 13.7934C14.4307 13.8097 14.4367 13.8257 14.4433 13.8416C14.4451 13.8461 14.4471 13.8506 14.4491 13.8551C14.4546 13.8676 14.4605 13.8799 14.4669 13.8921C14.4687 13.8957 14.4704 13.8992 14.4723 13.9027C14.4805 13.9178 14.4894 13.9326 14.4988 13.9472C14.5011 13.9508 14.5037 13.9543 14.5061 13.9579C14.5138 13.9693 14.522 13.9806 14.5305 13.9918C14.5336 13.996 14.5368 14.0001 14.54 14.0043C14.5511 14.0182 14.5626 14.032 14.5747 14.0455C14.5756 14.0464 14.5764 14.0472 14.5773 14.0482C14.5889 14.0608 14.601 14.0733 14.6135 14.0855C14.6176 14.0894 14.6217 14.0933 14.6258 14.0972C14.6365 14.1073 14.6475 14.1173 14.6588 14.1271C14.6622 14.13 14.6655 14.133 14.6689 14.1359C14.6833 14.148 14.6981 14.1598 14.7134 14.1714C14.7174 14.1744 14.7215 14.1774 14.7255 14.1804C14.7377 14.1894 14.75 14.1982 14.7627 14.2069C14.7675 14.2101 14.7722 14.2134 14.777 14.2166C14.7934 14.2275 14.8101 14.2382 14.8272 14.2486C14.8286 14.2494 14.83 14.2502 14.8314 14.2511C14.8475 14.2607 14.8639 14.27 14.8805 14.2791C14.8857 14.2819 14.8909 14.2847 14.8961 14.2875C14.9108 14.2953 14.9258 14.3029 14.9409 14.3103C14.9447 14.3122 14.9484 14.3141 14.9522 14.316C14.9708 14.3249 14.9896 14.3335 15.0087 14.3418C15.0133 14.3438 15.0179 14.3457 15.0226 14.3477C15.0379 14.3542 15.0534 14.3605 15.0689 14.3666C15.0742 14.3686 15.0794 14.3707 15.0847 14.3727C15.1045 14.3802 15.1243 14.3874 15.1444 14.3942C15.1457 14.3946 15.1469 14.395 15.1482 14.3954C15.1671 14.4017 15.1862 14.4077 15.2053 14.4135C15.2078 14.4142 15.2103 14.4151 15.2128 14.4158C14.9417 14.7834 14.6714 15.1602 14.4742 15.4669C13.822 16.4815 14.2912 17.4241 14.3871 17.5955L15.5245 20.6061L15.5496 20.6727L16.0695 20.4763L14.8991 17.3779C14.8932 17.3624 14.8851 17.3461 14.8765 17.3318C14.858 17.3009 14.4284 16.5657 14.9417 15.7673C15.1992 15.3669 15.6085 14.8122 15.9365 14.3738C16.0597 14.2091 16.1833 14.0448 16.3034 13.8854C16.4465 13.6953 16.5844 13.5121 16.7103 13.3431C16.7103 13.3431 16.7103 13.343 16.7104 13.3429C16.9836 12.9761 17.1487 12.7444 17.2456 12.5914C17.2457 12.5913 17.2457 12.5912 17.2458 12.5911C17.2615 12.5665 17.2761 12.5429 17.2884 12.5219C17.5633 12.0547 17.9493 9.89824 17.1904 7.80971C17.1528 7.70594 17.0573 7.6344 16.9472 7.62727ZM14.9994 13.6217C15.4572 13.3318 15.5234 13.0239 15.4984 12.8167C15.4694 12.5761 15.293 12.3627 15.0433 12.2604C15.0267 12.2536 15.0097 12.2472 14.9925 12.2414C14.9388 12.2234 14.8552 12.2105 14.7508 12.2017C14.716 12.1987 14.6789 12.1962 14.6398 12.1941C14.6007 12.192 14.5596 12.1903 14.5168 12.1889C14.4741 12.1876 14.4297 12.1867 14.384 12.186C14.3384 12.1854 14.2914 12.1851 14.2434 12.1851C14.2194 12.1851 14.1952 12.1852 14.1708 12.1853C13.7654 12.1877 13.3051 12.209 12.9822 12.227C12.9761 12.0802 12.9668 11.8594 12.9529 11.5261C12.9524 11.5145 12.951 11.5019 12.9491 11.4905C12.9237 11.3399 12.942 11.1478 12.9854 11.1101C12.9891 11.1068 13.0321 11.0961 13.1315 11.1273C13.1743 11.1408 13.2275 11.1821 13.2839 11.2259C13.4339 11.3424 13.7461 11.5847 14.1302 11.2513C14.4854 10.9429 14.4888 10.3405 14.3118 9.9301C14.2266 9.73302 14.0346 9.39434 13.7055 9.33998C13.3811 9.28645 13.1727 9.50617 13.0485 9.63754C13.0241 9.66328 13.0007 9.68801 12.979 9.70866C12.9697 9.67537 12.9603 9.63143 12.9531 9.5753C12.9738 8.75629 12.9837 8.36358 12.9885 8.17456C14.5274 8.17766 14.7818 8.22637 14.8155 8.23568C14.891 8.26106 14.9424 8.31523 14.9468 8.35084C14.9515 8.39016 14.9053 8.49106 14.7021 8.61978C14.4143 8.80209 14.3238 9.09618 14.4715 9.36901C14.4814 9.38721 14.4927 9.40508 14.5046 9.42277C14.5076 9.42731 14.5108 9.43185 14.5139 9.43634C14.5256 9.45296 14.538 9.46936 14.5515 9.48547C14.5523 9.48649 14.5531 9.48755 14.5539 9.48857C14.5682 9.50543 14.5835 9.52191 14.5995 9.53817C14.6037 9.54252 14.6081 9.54687 14.6125 9.55118C14.6274 9.56576 14.6428 9.58016 14.659 9.59424C14.6609 9.59591 14.6627 9.59767 14.6647 9.59933C14.6825 9.61462 14.7013 9.62939 14.7206 9.64393C14.726 9.64796 14.7314 9.65194 14.7369 9.65597C14.7541 9.66852 14.7718 9.68079 14.79 9.69273C14.7932 9.69482 14.7962 9.69695 14.7994 9.69903C14.8201 9.71241 14.8417 9.72529 14.8637 9.73783C14.8699 9.7414 14.8762 9.74487 14.8825 9.74835C14.9017 9.7589 14.9212 9.76918 14.9411 9.77909C14.9452 9.78113 14.9492 9.78331 14.9534 9.78534C14.9767 9.79664 15.0005 9.80739 15.0247 9.81771C15.0314 9.82058 15.0382 9.82332 15.0449 9.82609C15.0657 9.83466 15.0867 9.84286 15.108 9.85068C15.1128 9.85244 15.1176 9.85434 15.1225 9.85605C15.1477 9.86504 15.1733 9.87333 15.1991 9.8812C15.2059 9.88323 15.2127 9.88518 15.2196 9.88717C15.2417 9.89361 15.264 9.89963 15.2865 9.90518C15.2917 9.90648 15.2969 9.90787 15.3021 9.90912C15.3288 9.91542 15.3556 9.92102 15.3826 9.92607C15.3892 9.92727 15.3957 9.92834 15.4023 9.92949C15.4255 9.93352 15.4488 9.93709 15.4722 9.94015C15.4775 9.94084 15.4828 9.94167 15.4881 9.94227C15.5156 9.94556 15.5432 9.94811 15.5708 9.94996C15.5767 9.95038 15.5828 9.95061 15.5887 9.95093C15.6126 9.95228 15.6365 9.95302 15.6603 9.9532C15.666 9.95325 15.6718 9.95344 15.6775 9.95339C15.6899 9.95334 15.7022 9.95293 15.7145 9.95256C15.7234 9.95228 15.7324 9.95214 15.7412 9.95172C15.7539 9.95112 15.7665 9.9501 15.779 9.94913C15.7875 9.94848 15.796 9.94797 15.8045 9.94714C15.8174 9.94589 15.8302 9.94422 15.843 9.9426C15.8511 9.94158 15.8593 9.94075 15.8673 9.93954C15.8804 9.93764 15.8933 9.93524 15.9063 9.93292C15.914 9.93153 15.9217 9.93037 15.9293 9.92885C15.9426 9.92621 15.9558 9.92301 15.969 9.91991C15.9761 9.91824 15.9833 9.91681 15.9904 9.91495C16.004 9.91144 16.0175 9.90741 16.0309 9.90342C16.0374 9.90148 16.044 9.89986 16.0504 9.89782C16.065 9.89314 16.0795 9.88791 16.0939 9.88263C16.0989 9.88078 16.104 9.87925 16.109 9.87735C16.1283 9.86995 16.1474 9.86198 16.1662 9.85341C16.7025 9.60883 16.8521 9.29099 16.8832 9.06738C16.9209 8.79584 16.8039 8.52916 16.5535 8.31644C16.5199 8.28796 16.4784 8.22855 16.4452 8.16951C16.4557 8.16914 16.467 8.16886 16.4787 8.16858C16.4826 8.16849 16.4866 8.16844 16.4907 8.16835C16.4999 8.16821 16.5095 8.16807 16.5195 8.16803C16.5232 8.16803 16.5267 8.16793 16.5304 8.16793C16.5433 8.16789 16.5569 8.16793 16.5711 8.16803C16.5761 8.16807 16.5813 8.16812 16.5865 8.16821C16.5976 8.16835 16.609 8.16854 16.6209 8.16877C16.626 8.16886 16.631 8.16895 16.6363 8.16909C16.6524 8.16946 16.6691 8.16993 16.6865 8.17053C16.6928 8.17071 16.6995 8.17099 16.7059 8.17122C16.7133 8.1715 16.7204 8.17173 16.728 8.17201C17.2992 9.90143 17.0451 11.6579 16.8499 12.1538C16.8495 12.1538 16.8492 12.1537 16.8488 12.1537C16.8175 12.1521 16.7876 12.1507 16.7586 12.1495C16.755 12.1493 16.7512 12.1492 16.7476 12.149C16.7196 12.1479 16.6929 12.147 16.6671 12.1463C16.6634 12.1462 16.6597 12.1461 16.6561 12.1461C16.6306 12.1455 16.6062 12.145 16.5828 12.1448C16.5795 12.1448 16.5764 12.1448 16.5732 12.1447C16.5497 12.1445 16.527 12.1445 16.5054 12.1448C16.5034 12.1448 16.5015 12.1448 16.4995 12.1449C16.454 12.1454 16.4126 12.1468 16.3752 12.1489C16.3745 12.149 16.3738 12.149 16.3731 12.149C16.355 12.1501 16.3379 12.1513 16.3214 12.1527C16.3198 12.1528 16.318 12.153 16.3163 12.1531C16.3006 12.1545 16.2857 12.156 16.2714 12.1576C16.2696 12.1579 16.2678 12.158 16.2659 12.1583C16.2519 12.16 16.2385 12.1618 16.2259 12.1637C16.2244 12.164 16.2231 12.1642 16.2217 12.1644C16.2089 12.1664 16.1966 12.1686 16.185 12.1708C16.1844 12.171 16.1839 12.1711 16.1833 12.1712C16.1715 12.1735 16.1604 12.176 16.1499 12.1785C16.1496 12.1786 16.1493 12.1787 16.1489 12.1787C16.1387 12.1812 16.1292 12.1839 16.1199 12.1866C16.1188 12.1869 16.1176 12.1872 16.1165 12.1876C16.1079 12.1902 16.0997 12.1928 16.0919 12.1956C16.0906 12.196 16.0892 12.1965 16.0879 12.197C16.0804 12.1997 16.0732 12.2025 16.0664 12.2052C16.0652 12.2057 16.064 12.2063 16.0628 12.2068C16.056 12.2096 16.0494 12.2125 16.0433 12.2155C16.0424 12.2159 16.0416 12.2163 16.0408 12.2167C16.0344 12.2198 16.0281 12.223 16.0222 12.2262C15.9158 12.2837 15.8472 12.3896 15.8339 12.5167C15.8323 12.5328 15.8317 12.5491 15.8318 12.5657C15.8318 12.5711 15.8323 12.5767 15.8325 12.5822C15.8329 12.5934 15.8335 12.6047 15.8347 12.6161C15.8354 12.6225 15.8363 12.6291 15.8372 12.6356C15.8386 12.6462 15.8403 12.6569 15.8423 12.6677C15.8436 12.6744 15.8449 12.6812 15.8464 12.6879C15.8488 12.6989 15.8516 12.7098 15.8545 12.7208C15.8562 12.7272 15.8578 12.7335 15.8596 12.7399C15.8633 12.7524 15.8674 12.7649 15.8717 12.7774C15.8733 12.7822 15.8747 12.787 15.8764 12.7917C15.8826 12.8088 15.8892 12.8259 15.8963 12.8428C15.8981 12.8469 15.9 12.851 15.9018 12.855C15.9074 12.868 15.9132 12.8808 15.9192 12.8936C15.9221 12.8997 15.9252 12.9057 15.9283 12.9119C15.9336 12.9225 15.9389 12.933 15.9445 12.9434C15.9479 12.9498 15.9514 12.9562 15.9549 12.9625C15.9604 12.9725 15.9661 12.9824 15.9719 12.9922C15.9754 12.9984 15.979 13.0044 15.9827 13.0104C15.9888 13.0206 15.9951 13.0305 16.0014 13.0404C16.0047 13.0455 16.008 13.0508 16.0114 13.0559C16.0197 13.0686 16.0282 13.0809 16.0367 13.0929C16.0381 13.0949 16.0394 13.0969 16.0408 13.0988C16.0507 13.1127 16.0606 13.126 16.0706 13.1388C16.0737 13.1429 16.0768 13.1466 16.0799 13.1506C16.0868 13.1593 16.0936 13.1678 16.1005 13.1759C16.1042 13.1804 16.1079 13.1846 16.1115 13.1889C16.1151 13.193 16.1187 13.1974 16.1223 13.2014C16.0379 13.314 15.9496 13.4312 15.8593 13.5511C15.7671 13.6737 15.6725 13.7991 15.5778 13.9254C15.5778 13.9254 15.5778 13.9255 15.5778 13.9255C15.5769 13.9254 15.5761 13.9253 15.5753 13.9252C15.5742 13.9251 15.5732 13.9249 15.5722 13.9248C15.5529 13.9228 15.5338 13.9203 15.5148 13.9172C15.5106 13.9166 15.5064 13.9157 15.5023 13.915C15.4865 13.9123 15.4708 13.9093 15.4554 13.9059C15.4507 13.9049 15.4461 13.9038 15.4414 13.9028C15.4264 13.8993 15.4116 13.8956 15.397 13.8916C15.3927 13.8904 15.3884 13.8892 15.3841 13.888C15.369 13.8837 15.3542 13.8791 15.3396 13.8744C15.3362 13.8733 15.3328 13.8721 15.3294 13.871C15.3135 13.8656 15.298 13.86 15.2828 13.8542C15.281 13.8534 15.279 13.8528 15.2772 13.852C15.2246 13.8315 15.1765 13.8085 15.1343 13.7847C15.1337 13.7843 15.1331 13.784 15.1325 13.7836C15.1197 13.7764 15.1076 13.7691 15.096 13.7618C15.0934 13.7601 15.0909 13.7584 15.0883 13.7568C15.0789 13.7507 15.07 13.7448 15.0616 13.7388C15.0584 13.7366 15.0554 13.7344 15.0524 13.7322C15.045 13.7268 15.038 13.7215 15.0314 13.7162C15.0284 13.7138 15.0253 13.7113 15.0224 13.7089C15.0164 13.7039 15.0109 13.699 15.0057 13.6941C15.003 13.6917 15.0003 13.6892 14.9978 13.6868C14.9928 13.6819 14.9884 13.6771 14.9842 13.6724C14.9824 13.6703 14.9802 13.6682 14.9786 13.6662C14.9731 13.6596 14.9684 13.6533 14.9648 13.6473C14.9722 13.6406 14.9833 13.632 14.9994 13.6217ZM12.3984 11.5663C12.4016 11.6442 12.4155 11.9759 12.4261 12.2292C12.4163 12.2291 12.4058 12.229 12.3955 12.229C12.3886 12.2289 12.382 12.2289 12.3748 12.2288C12.1788 12.2279 11.9329 12.2299 11.7534 12.2313C11.6332 12.2322 11.5089 12.2332 11.4899 12.2326C11.4816 12.2321 10.6771 12.1951 10.5212 12.5976C10.4814 12.7006 10.4533 12.9046 10.7138 13.1147C10.8045 13.1878 10.879 13.3407 10.8911 13.4782C10.8952 13.5262 10.8951 13.615 10.847 13.6701C10.7717 13.7561 10.5998 13.8031 10.3862 13.7954C10.1505 13.7869 9.83178 13.6812 9.70657 13.5188C9.65934 13.4577 9.64609 13.3957 9.6636 13.3178C9.6723 13.2792 9.71495 13.2392 9.78395 13.1772C9.86568 13.1037 9.96741 13.0122 10.033 12.8727C10.0951 12.7406 10.0954 12.6004 10.0338 12.4779C9.92671 12.2647 9.6636 12.1711 9.46184 12.1302C9.40387 12.1185 9.30482 12.107 8.97521 12.1026C8.9566 12.1023 8.93785 12.1022 8.91914 12.1022C8.7135 12.1022 8.50331 12.1165 8.31601 12.1292C8.28609 12.1313 8.25655 12.1333 8.22752 12.1352C8.40427 11.35 8.39306 10.8971 8.19793 10.6495C7.87648 10.2418 7.37156 10.5054 7.12892 10.632C7.08525 10.6548 7.04399 10.6763 7.01112 10.6913C6.97949 10.7058 6.95847 10.7153 6.91133 10.6604C6.77829 10.5054 6.73564 10.1331 6.87558 9.91935C6.9155 9.85837 6.95643 9.82054 6.98509 9.81813C7.03246 9.81442 7.1085 9.86601 7.15036 9.90676C7.21463 9.99807 7.40893 10.2371 7.6831 10.2371C7.68449 10.2371 7.68593 10.2371 7.68727 10.2371C7.81118 10.2359 7.98891 10.1863 8.1319 9.95584C8.28619 9.70723 8.26141 9.20606 8.18774 8.73083C8.16908 8.61043 8.14732 8.49175 8.12449 8.37923C8.10999 8.30773 8.09509 8.2386 8.08031 8.17326C8.16348 8.17238 8.24687 8.17192 8.32934 8.17187C8.86019 8.17173 9.35043 8.18988 9.4686 8.22957C9.52213 8.24758 9.55006 8.26985 9.56061 8.28101C9.55145 8.30611 9.50495 8.39701 9.28681 8.53518C9.19239 8.59501 9.11964 8.66697 9.06917 8.74615C8.96577 8.90832 8.95702 9.10109 9.05625 9.28441C9.11348 9.39008 9.20702 9.48829 9.32399 9.57308C9.33543 9.58137 9.3471 9.58952 9.359 9.59753C9.73032 9.84841 10.3109 9.96645 10.7461 9.77067C10.7477 9.76997 10.7493 9.76937 10.7509 9.76868C11.0168 9.6474 11.1956 9.49255 11.285 9.30687C11.3153 9.24412 11.3353 9.17786 11.3451 9.10812C11.3713 8.91947 11.3168 8.72754 11.1871 8.54116C11.123 8.44901 11.0407 8.3582 10.94 8.26985C10.9416 8.2492 10.9507 8.21989 10.9613 8.20104C11.0241 8.18803 11.1489 8.18011 11.3174 8.17919C11.5342 8.17798 11.8236 8.18849 12.1462 8.21443C12.2388 8.22188 12.3339 8.23045 12.431 8.24054C12.4197 8.69059 12.3972 9.58155 12.3972 9.58155C12.3968 9.59438 12.3974 9.60725 12.3989 9.62003C12.4395 9.97603 12.5636 10.199 12.7677 10.2828C12.8849 10.331 13.0719 10.3501 13.2974 10.1683C13.3559 10.1212 13.4048 10.0695 13.4521 10.0196C13.5254 9.942 13.5836 9.88384 13.6145 9.88819C13.6406 9.89509 13.724 9.9708 13.8017 10.1505C13.8961 10.3692 13.9011 10.7145 13.766 10.8318C13.7482 10.8472 13.7354 10.8557 13.7275 10.8603C13.7018 10.8469 13.6563 10.8116 13.6247 10.7871C13.5408 10.7219 13.4363 10.6407 13.2983 10.5973C12.951 10.4881 12.7372 10.5887 12.619 10.6924C12.57 10.7354 12.5313 10.785 12.4998 10.838C12.4323 10.9516 12.4007 11.0812 12.3884 11.2017C12.3721 11.3601 12.3883 11.5017 12.3984 11.5663ZM4.95861 9.09794C4.81321 9.0313 4.73611 8.95712 4.71051 8.91832C4.71782 8.91183 4.72871 8.90336 4.74436 8.8934C5.10267 8.66651 5.26775 8.41405 5.23506 8.14311C5.22168 8.03235 5.17342 7.92978 5.09711 7.84134C5.00663 7.73655 4.87647 7.65172 4.71606 7.59782C4.44953 7.50836 3.6433 7.50271 3.16024 7.50808C3.20807 7.34346 3.24832 7.22158 3.26133 7.18287C4.16572 5.24984 6.41549 4.39509 7.59457 4.06993C7.59498 4.07206 7.5954 4.07423 7.59577 4.07632C7.60272 4.11327 7.6092 4.14906 7.61527 4.18384C7.61633 4.18986 7.61735 4.19579 7.61836 4.20171C7.62429 4.23621 7.6299 4.26978 7.63499 4.30215C7.63568 4.30646 7.63629 4.31067 7.63698 4.31493C7.64222 4.34846 7.64712 4.38115 7.65152 4.41241C7.65152 4.4125 7.65157 4.41264 7.65157 4.41273C7.65597 4.44408 7.65985 4.47404 7.66347 4.50316C7.66393 4.50701 7.66444 4.51099 7.6649 4.51479C7.66824 4.54215 7.67115 4.56841 7.67379 4.59388C7.67426 4.59851 7.67477 4.60314 7.67523 4.60772C7.67773 4.6325 7.67996 4.65639 7.68185 4.67931C7.68218 4.68334 7.6825 4.68723 7.68278 4.69121C7.68463 4.71446 7.68625 4.73696 7.6875 4.75826C7.68759 4.75984 7.68764 4.76132 7.68773 4.76289C7.68894 4.78382 7.68986 4.80383 7.69056 4.82295C7.69065 4.82522 7.69074 4.82763 7.69084 4.8299C7.69148 4.84879 7.69181 4.86666 7.69195 4.8838C7.692 4.88695 7.69204 4.89009 7.69204 4.8932C7.69213 4.90968 7.69199 4.92533 7.69167 4.9402C7.69162 4.94298 7.69153 4.94566 7.69143 4.94835C7.69102 4.96312 7.69046 4.9772 7.68972 4.9903C7.68963 4.99201 7.68949 4.99354 7.6894 4.99521C7.68861 5.00804 7.68764 5.02017 7.68653 5.03147C7.68644 5.03235 7.68639 5.03336 7.6863 5.03424C7.68514 5.04573 7.6838 5.05615 7.68232 5.06601C7.68209 5.06763 7.68185 5.06925 7.68162 5.07083C7.68019 5.08013 7.67861 5.08861 7.67699 5.09639C7.67667 5.09782 7.67639 5.09926 7.67607 5.10065C7.6744 5.10819 7.67259 5.11519 7.67074 5.1213C7.67046 5.12222 7.67018 5.12301 7.6699 5.12385C7.66796 5.1301 7.66592 5.13575 7.66384 5.14047C7.64147 5.11954 7.61684 5.09143 7.60049 5.06684C7.59271 5.0548 7.5841 5.04341 7.57452 5.03272C7.54632 5.00109 7.2884 4.72478 6.9443 4.74993C6.79853 4.76076 6.58756 4.83045 6.41048 5.10106C6.11829 5.54745 6.21549 6.18915 6.48962 6.50839C6.68947 6.74116 6.97055 6.80641 7.24149 6.68291C7.28784 6.66175 7.33549 6.63688 7.38596 6.61054C7.46991 6.56673 7.6926 6.45032 7.75442 6.47208C7.75442 6.47208 7.75599 6.47319 7.759 6.47657C7.78169 6.51885 7.79345 6.60127 7.7965 6.70968C7.79697 6.72514 7.7972 6.74116 7.79729 6.7577C7.79738 6.77418 7.79729 6.79122 7.79706 6.80863C7.79627 6.8642 7.79387 6.92426 7.78998 6.98756C7.78803 7.01918 7.78572 7.05164 7.78312 7.08475C7.76993 7.25016 7.74844 7.43144 7.72195 7.60782C7.71964 7.60745 7.71742 7.60676 7.7151 7.60648C7.34702 7.56031 6.12093 7.42338 5.79531 7.59962C5.6996 7.65139 5.61953 7.74206 5.56517 7.85199C5.52822 7.92673 5.50276 8.01012 5.49363 8.09727C5.47405 8.28476 5.53535 8.45387 5.66181 8.56121C5.86074 8.73018 5.93997 8.87623 5.93029 8.94596C5.92173 9.00741 5.82837 9.08432 5.68052 9.15174C5.49932 9.23459 5.20927 9.21287 4.95861 9.09794ZM10.072 3.98542C10.0756 3.97695 10.0787 3.96843 10.0819 3.95991C10.0845 3.95291 10.0871 3.94592 10.0894 3.93888C10.0922 3.93018 10.0947 3.92138 10.0971 3.91263C10.099 3.90577 10.101 3.89892 10.1027 3.89202C10.1048 3.88299 10.1065 3.87392 10.1082 3.86479C10.1095 3.85813 10.1109 3.85146 10.1119 3.84479C10.1134 3.8352 10.1142 3.82557 10.1152 3.81599C10.1158 3.80974 10.1167 3.80353 10.1171 3.79728C10.1171 3.79617 10.1173 3.79506 10.1174 3.79395C10.2084 3.79895 10.2977 3.80511 10.3862 3.81242C10.3868 3.81946 10.3879 3.82645 10.3887 3.83349C10.3896 3.84201 10.3903 3.85053 10.3916 3.85901C10.3928 3.86646 10.3946 3.87378 10.396 3.88119C10.3977 3.88966 10.3991 3.89813 10.4012 3.90652C10.403 3.91379 10.4055 3.92087 10.4076 3.92809C10.41 3.93643 10.4122 3.94481 10.4151 3.95301C10.4176 3.96018 10.4208 3.96713 10.4237 3.97417C10.4269 3.98218 10.4298 3.99028 10.4334 3.99811C10.4368 4.00519 10.4408 4.01205 10.4445 4.01899C10.4485 4.02654 10.4521 4.03418 10.4565 4.04154C10.4608 4.04858 10.4657 4.05525 10.4704 4.0621C10.4751 4.06905 10.4794 4.07618 10.4845 4.08299C10.4901 4.0903 10.4965 4.09725 10.5026 4.10433C10.5076 4.11021 10.5122 4.11637 10.5176 4.12207C10.5295 4.13466 10.5423 4.14684 10.556 4.15846C10.7465 4.32026 10.8036 4.45302 10.7947 4.51757C10.7847 4.58869 10.6822 4.67524 10.5203 4.74905C10.3392 4.83175 10.0489 4.80999 9.79834 4.6951C9.65294 4.62842 9.57585 4.55433 9.55024 4.51543C9.55751 4.50895 9.56839 4.50048 9.58409 4.49052C9.60599 4.47668 9.62716 4.46274 9.64767 4.44871C9.65429 4.44422 9.66045 4.43963 9.66688 4.43514C9.6805 4.4256 9.69416 4.41606 9.70722 4.40648C9.71477 4.40092 9.7219 4.39527 9.72921 4.38967C9.74056 4.38106 9.75195 4.37244 9.76278 4.36374C9.77038 4.35767 9.77751 4.35156 9.78482 4.34545C9.79478 4.33716 9.80478 4.32892 9.81432 4.32058C9.82159 4.31419 9.82849 4.3078 9.83553 4.30136C9.84447 4.29326 9.85336 4.28511 9.86188 4.27696C9.86873 4.27039 9.87521 4.26376 9.88179 4.25719C9.8898 4.24913 9.89781 4.24107 9.9054 4.23297C9.91175 4.22626 9.91777 4.2195 9.92379 4.21269C9.93097 4.20463 9.9381 4.19657 9.9449 4.18847C9.95064 4.18162 9.95615 4.17476 9.96162 4.16791C9.96805 4.15981 9.97435 4.1517 9.98042 4.14355C9.98556 4.13665 9.99051 4.12971 9.99537 4.12276C10.0011 4.11461 10.0066 4.10642 10.0119 4.09822C10.0164 4.09128 10.0208 4.08428 10.025 4.07729C10.03 4.06905 10.0347 4.06076 10.0393 4.05247C10.0432 4.04548 10.047 4.03849 10.0506 4.03149C10.0548 4.02311 10.0588 4.01473 10.0627 4.0063C10.0659 3.99945 10.0691 3.99246 10.072 3.98542ZM9.55608 3.77746C9.55598 3.77769 9.55584 3.77802 9.5557 3.7783C9.5551 3.7795 9.55445 3.7808 9.55376 3.78209C9.55311 3.78339 9.55241 3.78464 9.55163 3.78603C9.55084 3.78746 9.54996 3.78899 9.54904 3.79057C9.5482 3.79205 9.54727 3.79353 9.5463 3.79506C9.54524 3.79677 9.54413 3.79853 9.54292 3.80034C9.54186 3.802 9.54066 3.80372 9.53945 3.80548C9.53815 3.80737 9.53686 3.80927 9.53538 3.81131C9.53399 3.81326 9.53246 3.81529 9.53093 3.81733C9.52936 3.81941 9.52787 3.82141 9.52616 3.82358C9.52431 3.8259 9.52227 3.8284 9.52023 3.83085C9.51852 3.83294 9.51695 3.83488 9.51509 3.83706C9.51116 3.84164 9.50694 3.84636 9.50236 3.85132C9.50074 3.85303 9.49889 3.85493 9.49722 3.85669C9.49393 3.86012 9.49069 3.86359 9.48708 3.8672C9.48477 3.86952 9.48217 3.87197 9.47972 3.87438C9.47633 3.87767 9.47296 3.88095 9.4693 3.88433C9.46652 3.88693 9.46356 3.88961 9.46059 3.89225C9.4568 3.89568 9.453 3.89911 9.44893 3.90267C9.44573 3.90545 9.44235 3.90832 9.43897 3.91119C9.43475 3.9148 9.43036 3.91842 9.42586 3.92212C9.4222 3.92508 9.4185 3.92809 9.41466 3.93115C9.40984 3.93499 9.40475 3.93893 9.39961 3.94287C9.39563 3.94592 9.39165 3.94898 9.38743 3.95213C9.38188 3.95629 9.37599 3.96055 9.37007 3.96486C9.36576 3.96796 9.36159 3.97102 9.3571 3.97421C9.35034 3.97898 9.34311 3.98389 9.33589 3.98885C9.33177 3.99167 9.32779 3.99445 9.32353 3.99732C9.31288 4.00445 9.30167 4.01172 9.29005 4.01913C9.28889 4.01987 9.28783 4.02061 9.28667 4.02135C8.99888 4.20366 8.9084 4.49775 9.05611 4.77058C9.06598 4.78878 9.07727 4.80665 9.08917 4.82439C9.09223 4.82892 9.09534 4.83342 9.09853 4.83791C9.11034 4.85458 9.12274 4.87111 9.13627 4.88727C9.13705 4.8882 9.1377 4.88917 9.13849 4.89009C9.1527 4.907 9.16817 4.92348 9.18415 4.93983C9.18836 4.94413 9.19271 4.94844 9.19702 4.9527C9.21202 4.96742 9.22753 4.98192 9.24388 4.99609C9.24569 4.99766 9.24735 4.99928 9.24916 5.00081C9.26708 5.01614 9.28593 5.031 9.30528 5.04559C9.31056 5.04957 9.31593 5.05346 9.3213 5.0574C9.33871 5.07008 9.35654 5.08249 9.37497 5.09453C9.37798 5.09648 9.38081 5.09856 9.38382 5.10046C9.40475 5.11394 9.42642 5.12685 9.44846 5.13945C9.45453 5.14292 9.46069 5.1463 9.46684 5.14968C9.4862 5.16038 9.50588 5.17071 9.52598 5.18071C9.52996 5.1827 9.53385 5.18478 9.53787 5.18673C9.56121 5.19807 9.58516 5.20886 9.60937 5.21919C9.61595 5.22201 9.62261 5.22475 9.62928 5.22748C9.65017 5.23609 9.67133 5.24433 9.69277 5.2522C9.69754 5.25396 9.70222 5.25582 9.70699 5.25748C9.73222 5.26647 9.75783 5.2748 9.78367 5.28263C9.79048 5.28471 9.79733 5.28666 9.80418 5.2886C9.82632 5.29504 9.84859 5.30101 9.87109 5.30657C9.87632 5.30786 9.88146 5.3093 9.88674 5.3105C9.91337 5.3168 9.94018 5.3224 9.96713 5.3274C9.97375 5.32866 9.98042 5.32972 9.98709 5.33088C10.0101 5.33491 10.0333 5.33843 10.0565 5.34144C10.0619 5.34213 10.0673 5.34296 10.0728 5.34366C10.1002 5.34695 10.1276 5.34945 10.1551 5.3513C10.1613 5.35172 10.1676 5.35195 10.1738 5.35232C10.1973 5.35361 10.2207 5.35435 10.2442 5.35454C10.2503 5.35459 10.2564 5.35477 10.2625 5.35477C10.2742 5.35473 10.2859 5.35431 10.2975 5.35398C10.3071 5.35371 10.3167 5.35352 10.3263 5.35306C10.3381 5.35246 10.3498 5.35148 10.3617 5.3506C10.371 5.34991 10.3803 5.34935 10.3895 5.34843C10.4016 5.34727 10.4136 5.3457 10.4256 5.34417C10.4344 5.34306 10.4434 5.34213 10.4522 5.34083C10.4645 5.33903 10.4768 5.33676 10.489 5.33458C10.4974 5.3331 10.5058 5.3318 10.5141 5.33014C10.5268 5.32759 10.5393 5.32458 10.5518 5.32166C10.5596 5.31986 10.5674 5.31828 10.5751 5.31629C10.5882 5.31296 10.601 5.30907 10.6139 5.30527C10.621 5.30319 10.6281 5.30138 10.635 5.29916C10.6493 5.29467 10.6632 5.28953 10.6772 5.28443C10.6827 5.28244 10.6883 5.28073 10.6936 5.27869C10.7129 5.27128 10.732 5.26332 10.7508 5.25475C11.1067 5.09245 11.3066 4.87023 11.345 4.5942C11.3473 4.5779 11.3488 4.5616 11.3499 4.5453C11.3502 4.54016 11.3503 4.53502 11.3505 4.52988C11.351 4.51858 11.3513 4.50724 11.3512 4.49594C11.3512 4.49001 11.351 4.48413 11.3508 4.47821C11.3504 4.46737 11.3498 4.45658 11.3489 4.44575C11.3484 4.43991 11.348 4.43412 11.3474 4.42829C11.3461 4.41639 11.3444 4.40449 11.3425 4.39263C11.3418 4.38809 11.3413 4.38356 11.3405 4.37902C11.3375 4.36263 11.3341 4.34619 11.33 4.3298C11.3293 4.3272 11.3285 4.32456 11.3278 4.32197C11.3242 4.30822 11.3203 4.29446 11.3159 4.28071C11.3141 4.2752 11.3121 4.26974 11.3102 4.26423C11.3064 4.25321 11.3024 4.24223 11.2981 4.23121C11.2957 4.22524 11.2933 4.21926 11.2908 4.21329C11.2863 4.20246 11.2814 4.19162 11.2764 4.18083C11.2737 4.17518 11.2711 4.16949 11.2684 4.16384C11.2622 4.15129 11.2556 4.13878 11.2487 4.12624C11.2467 4.12248 11.2448 4.11873 11.2427 4.11498C11.2336 4.09882 11.2239 4.08271 11.2137 4.06664C11.211 4.06247 11.2081 4.05831 11.2054 4.05414C11.1975 4.04215 11.1895 4.0302 11.181 4.01825C11.177 4.01251 11.1727 4.00677 11.1684 4.00098C11.1607 3.99051 11.1529 3.9801 11.1447 3.96972C11.14 3.9637 11.1351 3.95768 11.1303 3.95166C11.1217 3.94115 11.1129 3.93069 11.1038 3.92022C11.0991 3.91471 11.0944 3.90916 11.0895 3.90364C11.0878 3.90175 11.0863 3.89985 11.0846 3.89795C11.5427 3.97273 11.9893 4.08345 12.4185 4.2288L12.3972 5.06768C12.3969 5.0805 12.3975 5.09342 12.399 5.10616C12.4396 5.46215 12.5637 5.68516 12.7678 5.76893C12.885 5.81709 13.072 5.83621 13.2975 5.65442C13.356 5.60732 13.4049 5.55565 13.4522 5.50564C13.5256 5.42807 13.5837 5.36936 13.6145 5.37427C13.6407 5.38117 13.7241 5.45683 13.8018 5.63654C13.8962 5.85534 13.9012 6.20064 13.766 6.31793C13.7483 6.33335 13.7355 6.34187 13.7276 6.34645C13.7212 6.34307 13.7135 6.33835 13.7052 6.33279C13.6801 6.31603 13.6486 6.29158 13.6249 6.2732C13.5724 6.23245 13.5119 6.18545 13.4402 6.14535C13.3972 6.12127 13.3501 6.09969 13.2984 6.08344C12.9511 5.97425 12.7373 6.07487 12.6191 6.1785C12.4189 6.35409 12.3794 6.6348 12.3813 6.83822C12.3822 6.93069 12.3916 7.00719 12.3983 7.05058L12.4173 7.6827C11.9053 7.63403 10.9552 7.56735 10.6896 7.71104C10.5289 7.798 10.4105 7.99332 10.388 8.20864C10.3684 8.39613 10.4297 8.56528 10.5562 8.67262C10.7466 8.83446 10.8038 8.96722 10.7948 9.03172C10.7849 9.10285 10.6823 9.18939 10.5204 9.2632C10.3393 9.3459 10.049 9.32419 9.79848 9.20921C9.65308 9.14258 9.57599 9.06844 9.55033 9.02954C9.55765 9.02306 9.56853 9.01463 9.58418 9.00463C9.97014 8.76023 10.1486 8.49346 10.1146 8.21174C10.0869 7.98248 9.91161 7.79226 9.64558 7.70284C9.4216 7.62764 8.78587 7.61384 8.28494 7.61569C8.36546 7.0798 8.41135 6.40614 8.19802 6.13562C7.87657 5.72776 7.37165 5.99138 7.12906 6.11798C7.08539 6.14081 7.04409 6.16234 7.01116 6.17735C6.97949 6.19179 6.95856 6.20133 6.91142 6.14646C6.77838 5.99152 6.73573 5.61913 6.87567 5.40543C6.88067 5.39779 6.88567 5.39057 6.89067 5.38367C6.92563 5.33555 6.96013 5.30629 6.98518 5.30421C7.03255 5.30041 7.10859 5.35209 7.15045 5.39283C7.21472 5.48415 7.40906 5.72313 7.68319 5.72313C7.68458 5.72313 7.68602 5.72313 7.68741 5.72309C7.71066 5.7229 7.73575 5.72096 7.76219 5.71647C7.76937 5.71526 7.77659 5.71383 7.78396 5.71225C7.89402 5.68808 8.02312 5.61742 8.13203 5.44187C8.13833 5.43173 8.14556 5.41997 8.15334 5.40603C8.15366 5.40548 8.15399 5.40483 8.15431 5.40427C8.15649 5.40034 8.15866 5.39626 8.16088 5.39191C8.16158 5.39057 8.16232 5.38908 8.16302 5.3877C8.16491 5.38394 8.16681 5.38015 8.16871 5.37612C8.16963 5.37417 8.17056 5.37218 8.17149 5.37019C8.1732 5.36644 8.17496 5.3626 8.17667 5.35857C8.17774 5.35616 8.17876 5.35371 8.17982 5.35121C8.18144 5.34727 8.18311 5.34324 8.18473 5.33912C8.18584 5.3363 8.18696 5.33342 8.18807 5.33046C8.18964 5.32625 8.19121 5.32189 8.19274 5.31745C8.19385 5.31425 8.19501 5.31101 8.19612 5.30763C8.1976 5.30309 8.19908 5.29842 8.20057 5.29365C8.20168 5.29004 8.20279 5.28642 8.2039 5.28263C8.20534 5.27777 8.20673 5.27263 8.20812 5.26753C8.20923 5.26346 8.21034 5.25947 8.2114 5.25521C8.21274 5.24989 8.21405 5.24429 8.21534 5.23868C8.21636 5.23424 8.21743 5.22993 8.21844 5.22535C8.21974 5.21933 8.22099 5.21294 8.22224 5.20659C8.22316 5.20201 8.22409 5.19761 8.22497 5.19284C8.22627 5.18562 8.22752 5.17793 8.22877 5.17029C8.22946 5.16594 8.2302 5.16186 8.2309 5.15742C8.2327 5.14538 8.23442 5.13283 8.23599 5.11977C8.23659 5.11468 8.2371 5.10912 8.2377 5.10384C8.23863 5.09546 8.23956 5.08717 8.24034 5.07837C8.24094 5.07189 8.24141 5.06494 8.24197 5.05823C8.24261 5.05013 8.24326 5.04216 8.24382 5.03373C8.24428 5.02646 8.24465 5.01882 8.24502 5.01132C8.24549 5.0028 8.24595 4.99433 8.24627 4.98548C8.2466 4.97761 8.24678 4.96937 8.24701 4.96117C8.24724 4.95214 8.24752 4.94307 8.24766 4.93371C8.2478 4.92515 8.2478 4.91626 8.24784 4.90737C8.24789 4.89778 8.24789 4.8881 8.24784 4.87815C8.2478 4.86884 8.24762 4.85935 8.24743 4.84976C8.24725 4.83957 8.24701 4.8293 8.24669 4.81878C8.24641 4.80878 8.24604 4.79864 8.24567 4.78831C8.24525 4.77748 8.24474 4.76646 8.24419 4.75525C8.24368 4.74456 8.24308 4.73372 8.24247 4.7227C8.24178 4.71117 8.24104 4.69936 8.24021 4.68746C8.23942 4.67612 8.23863 4.66472 8.23775 4.65301C8.23678 4.6406 8.23572 4.62787 8.23461 4.61504C8.23359 4.60309 8.23256 4.59119 8.23141 4.57887C8.23016 4.56549 8.22868 4.5516 8.22724 4.53775C8.22594 4.52534 8.22474 4.51307 8.22331 4.50029C8.22169 4.48561 8.21983 4.47038 8.21798 4.45519C8.21645 4.44246 8.21501 4.42991 8.21335 4.41685C8.21126 4.40037 8.20885 4.38314 8.20659 4.3661C8.20487 4.3536 8.20334 4.34146 8.20154 4.32864C8.19816 4.30493 8.1945 4.28039 8.19071 4.25566C8.18872 4.24251 8.18663 4.22917 8.1845 4.21574C8.18047 4.19037 8.17635 4.16476 8.17191 4.13832C8.16973 4.12536 8.16723 4.1117 8.16492 4.09845C8.16126 4.07734 8.1576 4.05631 8.15362 4.03455C8.15088 4.01941 8.14783 4.00362 8.14491 3.98811C8.14172 3.97116 8.13875 3.95463 8.13541 3.93726C8.67816 3.8202 9.1039 3.77686 9.33779 3.77686C9.40382 3.77681 9.47689 3.77681 9.55608 3.77746ZM16.4665 12.7377C16.4656 12.7363 16.4647 12.7348 16.4638 12.7333C16.4577 12.7233 16.4516 12.7132 16.4459 12.703C16.4457 12.7026 16.4454 12.7022 16.4452 12.7019C16.4598 12.7013 16.4756 12.7009 16.4925 12.7007C16.4928 12.7007 16.4932 12.7007 16.4935 12.7007C16.4846 12.713 16.4755 12.7253 16.4665 12.7377ZM12.4425 12.5681C12.4428 12.5693 12.4431 12.5704 12.4434 12.5717C12.4435 12.5723 12.4435 12.5728 12.4436 12.5734C12.4433 12.5716 12.4429 12.5699 12.4425 12.5681ZM12.4497 12.5987C12.4498 12.5992 12.4499 12.5998 12.4501 12.6003C12.4503 12.6011 12.4505 12.6019 12.4507 12.6027C12.4503 12.6014 12.45 12.6 12.4497 12.5987Z" fill="#003F3C"/>
<path d="M20.7161 1.71585C20.563 1.56531 20.258 1.32387 19.9323 1.3975C19.6113 1.4701 19.5013 1.7521 19.4356 1.92056C19.4228 1.95358 19.4104 1.98535 19.3981 2.01267C19.3767 1.98511 19.3512 1.94761 19.3231 1.89774C18.8482 0.677535 18.8476 0.676007 18.8467 0.673784C18.7941 0.543711 18.6529 0.473281 18.5173 0.509445C17.0296 0.907489 16.8727 1.09804 16.8058 1.17935C16.7288 1.27275 16.7051 1.39671 16.7407 1.51951C16.8178 1.7854 17.1785 2.02471 17.3587 2.08393C17.4311 2.10778 17.5564 2.16284 17.582 2.26392C17.6111 2.37899 17.5238 2.55852 17.3485 2.7442C17.2117 2.889 16.9351 2.978 16.6594 2.96615C16.4996 2.95916 16.4002 2.91952 16.3618 2.89317C16.3662 2.88442 16.373 2.87247 16.3838 2.85738C16.6987 2.41641 16.6442 2.10625 16.5429 1.92371C16.4176 1.69765 16.1486 1.56318 15.8576 1.58138C15.7954 1.58522 15.606 1.59703 14.6365 2.01447C13.6362 2.44512 13.6164 2.49286 13.5728 2.59742C13.532 2.69517 13.5505 2.80922 13.6201 2.88891C13.6242 2.89363 13.6288 2.89859 13.634 2.90363C13.7612 3.2406 14.1586 4.29359 14.1586 4.29359C14.1631 4.30563 14.1685 4.31735 14.1747 4.32865C14.3464 4.64315 14.5454 4.80296 14.7661 4.8037C14.7666 4.8037 14.767 4.8037 14.7675 4.8037C14.894 4.8037 15.0736 4.75044 15.2136 4.49808C15.25 4.43242 15.2758 4.36615 15.3008 4.30202C15.3396 4.20256 15.3717 4.12597 15.4018 4.11911C15.4294 4.11541 15.5344 4.15435 15.674 4.29155C15.8439 4.45863 15.9785 4.77665 15.8975 4.93613L15.8975 4.93618C15.8869 4.95711 15.8783 4.96984 15.8727 4.97706C15.8438 4.97429 15.7884 4.95873 15.7499 4.94789C15.6476 4.91909 15.52 4.8833 15.376 4.89506C15.0131 4.92469 14.853 5.09843 14.7826 5.23897C14.6539 5.49578 14.7445 5.7951 14.8294 5.98199C14.8594 6.04816 14.8887 6.10053 14.9073 6.13151L15.1954 6.76298C15.2574 6.89857 15.4152 6.96112 15.5532 6.90491C15.6215 6.87708 15.6865 6.85064 15.7501 6.82489C17.2337 6.22408 17.4958 6.17096 17.531 6.16675C17.6108 6.16217 17.6786 6.19263 17.696 6.22398C17.7152 6.25862 17.7104 6.36948 17.5706 6.56526C17.3727 6.84254 17.3996 7.14903 17.6392 7.34616C17.8049 7.48239 18.0683 7.55388 18.3503 7.55388C18.7267 7.55388 19.1362 7.42668 19.3914 7.15649C19.7961 6.72793 19.815 6.37707 19.7596 6.15828C19.6923 5.89253 19.4834 5.68957 19.1713 5.58686C19.1295 5.57311 19.0686 5.53371 19.0157 5.49143C19.2121 5.404 19.6069 5.26245 20.2982 5.07741C20.376 5.05662 20.441 5.00309 20.4762 4.93071C20.5115 4.85834 20.5136 4.7742 20.482 4.70016L20.0612 3.71241C20.0555 3.69898 20.0487 3.68602 20.041 3.67365C19.962 3.54779 19.9059 3.36002 19.9318 3.30835C19.9341 3.3039 19.9697 3.27783 20.0737 3.26931C20.1182 3.26551 20.1832 3.2839 20.252 3.30321C20.4348 3.35461 20.8153 3.46162 21.0456 3.00805C21.2584 2.58866 21.0347 2.02924 20.7161 1.71585ZM20.55 2.75666C20.5394 2.77759 20.5308 2.79037 20.5251 2.79759C20.4963 2.79482 20.4409 2.77926 20.4024 2.76842C20.3001 2.73967 20.1724 2.70378 20.0285 2.71563C19.6656 2.74527 19.5054 2.91901 19.4351 3.0595C19.2624 3.40411 19.4846 3.826 19.5579 3.94885L19.8463 4.6256C18.6456 4.96604 18.5067 5.13492 18.4448 5.21017C18.3679 5.30357 18.3441 5.42753 18.3797 5.55033C18.4568 5.81617 18.8175 6.05552 18.9977 6.11479C19.0701 6.13864 19.1954 6.1937 19.221 6.29478C19.2501 6.40985 19.1628 6.58938 18.9875 6.77507C18.8507 6.91987 18.5738 7.00947 18.2984 6.99701C18.1386 6.99002 18.0392 6.95038 18.0008 6.92403C18.0051 6.91528 18.012 6.90333 18.0228 6.88824C18.3377 6.44727 18.2831 6.13711 18.1819 5.95462C18.0565 5.72856 17.7868 5.59395 17.4965 5.61224C17.4138 5.61738 17.2252 5.62914 15.5904 6.29006L15.4059 5.88558C15.4008 5.87442 15.395 5.86363 15.3885 5.85326C15.3095 5.7274 15.2535 5.53963 15.2794 5.48795C15.2816 5.48351 15.3172 5.45739 15.4212 5.44892C15.4656 5.44526 15.5308 5.46351 15.5996 5.48281C15.7823 5.53417 16.1629 5.64109 16.3931 5.18766C16.606 4.76818 16.3824 4.20881 16.0637 3.89527C15.9106 3.74478 15.6052 3.50343 15.2799 3.57697C14.9588 3.64962 14.8489 3.93167 14.7832 4.10013C14.7704 4.1331 14.758 4.16486 14.7457 4.19214C14.7245 4.16482 14.6992 4.12763 14.6714 4.07832C14.4094 3.38392 14.2706 3.0162 14.197 2.8213C14.6556 2.60246 15.6975 2.15584 15.8921 2.13589C15.9718 2.13121 16.0397 2.16177 16.0571 2.19312C16.0763 2.22776 16.0716 2.33861 15.9317 2.53444C15.7338 2.81172 15.7607 3.11822 16.0003 3.31534C16.3869 3.63337 17.3061 3.59845 17.7526 3.12567C18.1573 2.69711 18.1761 2.3463 18.1208 2.12746C18.0535 1.86166 17.8446 1.65875 17.5325 1.556C17.4906 1.54225 17.4298 1.50284 17.3768 1.46061C17.5495 1.38374 17.8753 1.26511 18.4212 1.11188C18.5608 1.47043 18.8123 2.11667 18.8123 2.11667C18.8166 2.12778 18.8216 2.13857 18.8273 2.14904C18.999 2.46355 19.198 2.62335 19.4187 2.62409C19.4191 2.62409 19.4196 2.62409 19.4201 2.62409C19.5467 2.62409 19.7262 2.57084 19.8661 2.31852C19.9026 2.2529 19.9284 2.18654 19.9534 2.12237C19.9922 2.02299 20.0243 1.94636 20.0544 1.93955C20.0844 1.9358 20.1947 1.98234 20.3266 2.11199C20.4963 2.27911 20.631 2.59709 20.55 2.75666Z" fill="#003F3C"/>
</svg>
