<svg width="23" height="12" viewBox="0 0 23 12" fill="none" xmlns="http://www.w3.org/2000/svg">
<path d="M12.9276 4.84514L10.8522 4.80646L12.0556 0.795931C12.1357 0.528841 11.7774 0.358039 11.6204 0.588486L7.60572 6.48089C7.49655 6.64112 7.60892 6.8585 7.80276 6.86211L9.87815 6.9008L8.67475 10.9113C8.59462 11.1784 8.95297 11.3492 9.10998 11.1188L13.1247 5.22637C13.2338 5.06616 13.1214 4.84876 12.9276 4.84514Z" fill="#003F3C"/>
<path d="M21.126 7.44031H21.0923V4.26709H21.126C22.0023 4.26709 22.7127 4.97743 22.7127 5.8537C22.7127 6.72995 22.0023 7.44031 21.126 7.44031Z" fill="#003F3C"/>
<path d="M18.7639 1.17163H13.0899C12.8857 1.17163 12.7058 1.30555 12.6471 1.50108C12.5581 1.79773 12.7802 2.09629 13.0899 2.09629H18.7639C19.2201 2.09629 19.5899 2.46607 19.5899 2.92222V8.78514C19.5899 9.24129 19.2201 9.61107 18.7639 9.61107H11.3127C11.1597 9.61107 11.0167 9.6867 10.9306 9.81308C10.7215 10.12 10.9413 10.5357 11.3127 10.5357H18.7639C19.7308 10.5357 20.5145 9.75198 20.5145 8.78516V2.92223C20.5145 1.95539 19.7308 1.17163 18.7639 1.17163Z" fill="#003F3C"/>
<path d="M7.63751 9.61107H1.96347C1.50733 9.61107 1.13755 9.24129 1.13755 8.78514V2.92221C1.13755 2.46606 1.50733 2.09628 1.96347 2.09628H9.41474C9.56768 2.09628 9.71071 2.02065 9.79682 1.89427C10.0059 1.58736 9.78612 1.17163 9.41474 1.17163H1.96347C0.99665 1.17163 0.212891 1.95539 0.212891 2.92221V8.78514C0.212891 9.75197 0.99665 10.5357 1.96347 10.5357H7.63751C7.84168 10.5357 8.02165 10.4018 8.08033 10.2063C8.16936 9.90963 7.94723 9.61107 7.63751 9.61107Z" fill="#003F3C"/>
</svg>
