<svg width="23" height="17" viewBox="0 0 23 17" fill="none" xmlns="http://www.w3.org/2000/svg">
<path d="M5.00828 2.87297C3.74793 2.90277 2.55794 3.41485 1.65764 4.31476C0.757339 5.21467 0.244788 6.40442 0.214352 7.66478C0.154734 10.1337 1.92599 12.2537 4.3503 12.6384V13.9797H3.87783C3.44921 13.9797 3.10061 14.3284 3.10061 14.7569C3.10061 15.1856 3.44921 15.5342 3.87783 15.5342H4.3503V16.0762C4.3503 16.5048 4.6989 16.8534 5.12752 16.8534C5.55613 16.8534 5.90473 16.5048 5.90473 16.0762V15.5342H6.37728C6.8059 15.5342 7.1545 15.1856 7.1545 14.7569C7.1545 14.3284 6.8059 13.9797 6.37728 13.9797H5.90473V12.6384C8.27075 12.2621 10.0422 10.1942 10.0422 7.78613C10.0422 6.45133 9.5162 5.20259 8.56107 4.26981C7.60626 3.33735 6.34276 2.84182 5.00828 2.87297ZM8.55582 7.78613C8.55582 9.67646 7.01793 11.2144 5.12752 11.2144C3.23718 11.2144 1.69929 9.67654 1.69929 7.78613C1.69929 5.89579 3.23718 4.3579 5.12752 4.3579C7.01785 4.3579 8.55582 5.89579 8.55582 7.78613Z" fill="#003F3C"/>
<path d="M22.5606 1.07912C22.4151 0.933607 22.2217 0.853516 22.016 0.853516C22.0158 0.853516 22.0156 0.853516 22.0155 0.853516L19.2911 0.855085C19.0837 0.855163 18.8888 0.936195 18.7423 1.08304C18.5958 1.22997 18.5153 1.42506 18.5158 1.63246C18.5163 1.8401 18.5977 2.03503 18.7451 2.18133C18.8915 2.32661 19.0854 2.40647 19.2914 2.40647C19.2928 2.40647 19.2942 2.40647 19.2956 2.40647L20.1384 2.40207L18.7351 3.80535C17.8471 3.16188 16.7573 2.83241 15.6557 2.87548C14.4465 2.92302 13.2988 3.41862 12.4244 4.27115C11.5497 5.12399 11.0257 6.25852 10.949 7.46585C10.8592 8.87995 11.3803 10.2634 12.3783 11.2615C13.3025 12.1857 14.5569 12.7008 15.8603 12.7007C15.9646 12.7007 16.0693 12.6974 16.1739 12.6908C17.3813 12.6142 18.5158 12.0902 19.3686 11.2154C20.2212 10.341 20.7169 9.19333 20.7643 7.98405C20.8076 6.88215 20.4778 5.79272 19.8344 4.90466L21.2378 3.50138L21.2333 4.34418C21.2322 4.55182 21.3122 4.7473 21.4585 4.8947C21.6047 5.04202 21.7997 5.12344 22.0073 5.12391C22.0079 5.12391 22.0085 5.12391 22.0091 5.12391C22.2158 5.12391 22.4102 5.04359 22.5568 4.89752C22.7036 4.75099 22.7846 4.55614 22.7847 4.34865L22.7863 1.6243C22.7863 1.41831 22.7061 1.22471 22.5606 1.07912ZM19.2816 7.78621C19.2816 9.67655 17.7438 11.2145 15.8534 11.2145C13.9631 11.2145 12.4252 9.67663 12.4252 7.78621C12.4252 5.89587 13.9631 4.35799 15.8534 4.35799C17.7438 4.35799 19.2816 5.89587 19.2816 7.78621Z" fill="#003F3C"/>
</svg>
