<svg width="14" height="16" viewBox="0 0 14 16" fill="none" xmlns="http://www.w3.org/2000/svg">
<path d="M8.00773 7.36206C7.54122 7.36206 7.17704 7.28381 7.14695 7.27779C7.0085 7.24769 6.92121 7.10924 6.95131 6.97079C6.98141 6.83234 7.11985 6.74506 7.2583 6.77516C7.27335 6.77817 8.60969 7.0641 9.29892 6.4802C9.40728 6.38991 9.5698 6.40195 9.66009 6.5103C9.75039 6.61865 9.73835 6.78118 9.62999 6.87147C9.16649 7.26575 8.5224 7.36206 8.00773 7.36206Z" fill="#003F3C"/>
<path d="M9.33938 7.57573C9.24608 7.57573 9.15278 7.52456 9.11064 7.43126L8.89996 7.00387C8.83675 6.87746 8.89093 6.72396 9.01734 6.66076C9.14375 6.59755 9.29725 6.65173 9.36045 6.77814L9.57113 7.20553C9.63434 7.33194 9.58016 7.48543 9.45375 7.54864C9.41463 7.5667 9.3755 7.57573 9.33938 7.57573Z" fill="#003F3C"/>
<path d="M8.43493 8.00011C8.31153 8.00011 8.20017 7.90982 8.18211 7.78341L8.08279 7.13029C8.06172 6.98883 8.15804 6.85941 8.29648 6.83834C8.43794 6.81727 8.56736 6.91359 8.58843 7.05204L8.68775 7.70515C8.70882 7.84661 8.61251 7.97603 8.47406 7.9971C8.45901 8.00011 8.44697 8.00011 8.43493 8.00011Z" fill="#003F3C"/>
<path d="M7.37715 7.78644C7.35608 7.78644 7.33201 7.78343 7.31094 7.77741C7.17249 7.74129 7.09123 7.59984 7.12734 7.4644L7.24774 7.00691C7.28385 6.87147 7.42531 6.7872 7.56075 6.82332C7.69619 6.85944 7.78046 7.00089 7.74133 7.13633L7.62094 7.59382C7.59385 7.7112 7.49152 7.78644 7.37715 7.78644Z" fill="#003F3C"/>
<path d="M5.2189 5.55313C5.19483 5.55313 5.16773 5.55011 5.14365 5.54109C4.65908 5.39361 4.05713 5.35749 3.35586 5.43574C3.2144 5.45079 3.08799 5.34846 3.07294 5.207C3.05789 5.06554 3.16022 4.93913 3.30168 4.92408C4.07218 4.83981 4.74336 4.88195 5.29415 5.04748C5.42959 5.08962 5.50483 5.23108 5.4657 5.36652C5.43259 5.48089 5.33026 5.55313 5.2189 5.55313Z" fill="#003F3C"/>
<path d="M4.35043 7.362C3.83576 7.362 3.19167 7.26569 2.72516 6.87442C2.61681 6.78412 2.60176 6.6216 2.69506 6.51324C2.78535 6.40489 2.94788 6.38984 3.05623 6.48315C3.74847 7.06704 5.08481 6.78111 5.09685 6.7781C5.2353 6.74801 5.37074 6.83529 5.40384 6.97374C5.43695 7.11219 5.34666 7.24763 5.20821 7.28073C5.17811 7.28374 4.81694 7.362 4.35043 7.362Z" fill="#003F3C"/>
<path d="M7.22124 5.55316C7.10988 5.55316 7.01055 5.48092 6.97444 5.37257C6.9323 5.23713 7.01056 5.09266 7.146 5.05354C7.69678 4.88499 8.36796 4.84586 9.13845 4.93013C9.27991 4.94518 9.38225 5.07159 9.3672 5.21305C9.35215 5.35451 9.22574 5.45383 9.08428 5.44179C8.38301 5.36655 7.78105 5.39966 7.29648 5.54714C7.2694 5.55015 7.24532 5.55316 7.22124 5.55316Z" fill="#003F3C"/>
<path d="M6.18036 9.66156C5.90948 9.66156 5.64161 9.57729 5.42792 9.42379L5.2383 9.28835C5.12393 9.20709 5.09685 9.04456 5.18112 8.93019C5.26238 8.81582 5.42491 8.78873 5.53928 8.87L5.72889 9.00544C5.98171 9.18602 6.38201 9.18602 6.63483 9.00544L6.82445 8.87C6.93882 8.78873 7.09833 8.81281 7.18261 8.93019C7.26387 9.04456 7.2398 9.20408 7.12242 9.28835L6.9328 9.42379C6.7191 9.57729 6.45124 9.66156 6.18036 9.66156Z" fill="#003F3C"/>
<path d="M6.15147 12.4153C5.96787 12.4153 5.28465 12.3612 4.65862 11.5967C4.57736 11.4974 4.58037 11.3559 4.66765 11.2596C4.68872 11.2385 5.16125 10.7359 6.15447 10.6516C6.16952 10.6516 6.18457 10.6516 6.19962 10.6516C7.19284 10.7389 7.66538 11.2385 7.68644 11.2596C7.77373 11.3529 7.77674 11.4974 7.69547 11.5967C7.03634 12.4033 6.30797 12.4214 6.17554 12.4153C6.16952 12.4153 6.1605 12.4153 6.15147 12.4153ZM6.17855 11.9007C6.18457 11.9007 6.1936 11.9007 6.19962 11.9007C6.21768 11.9007 6.65109 11.9187 7.12362 11.4612C6.94604 11.3499 6.63603 11.2054 6.17855 11.1603C5.72107 11.2024 5.41106 11.3469 5.23349 11.4612C5.70602 11.9187 6.13943 11.9007 6.1605 11.9007C6.16652 11.9007 6.17253 11.9007 6.17855 11.9007Z" fill="#003F3C"/>
<path d="M6.1699 13.9653C5.56493 13.9653 4.95997 13.7696 4.45734 13.3784C2.26925 11.6748 1.4837 9.75461 1.20981 8.44536C0.911842 7.01572 1.13457 5.99843 1.1436 5.95629C1.16466 5.85697 1.71244 3.42809 4.86065 1.79981L5.39037 1.53194C5.59804 1.42961 5.82979 1.41155 6.04649 1.48679C7.00059 1.81486 10.1909 3.10003 11.2022 5.92619C11.2052 5.93522 11.2082 5.94425 11.2112 5.95629C11.2112 5.96231 11.2534 6.1459 11.2775 6.4529C11.3076 6.83514 11.2835 7.22641 11.2082 7.62972C11.1811 7.76816 11.0457 7.86147 10.9073 7.83438C10.7688 7.80729 10.6755 7.67486 10.7026 7.5334C10.7718 7.17524 10.7929 6.82912 10.7658 6.50407C10.7477 6.27231 10.7206 6.12484 10.7116 6.0827C9.76957 3.48528 6.77486 2.28137 5.87795 1.97438C5.79368 1.94428 5.70037 1.9503 5.61911 1.99243L5.08939 2.25729C2.17293 3.76819 1.64622 6.04357 1.6402 6.06765C1.63719 6.07969 1.42952 7.0398 1.71244 8.36711C1.97128 9.58606 2.71168 11.3769 4.76734 12.975C5.59804 13.6221 6.76582 13.6131 7.60856 12.954C7.94264 12.6921 8.21352 12.4574 8.43624 12.2346C8.53556 12.1353 8.69809 12.1353 8.80042 12.2346C8.89974 12.334 8.89974 12.4965 8.80042 12.5988C8.55964 12.8366 8.28275 13.0804 7.92759 13.3573C7.40992 13.7606 6.7869 13.9653 6.1699 13.9653Z" fill="#003F3C"/>
<path d="M3.37394 16C3.31375 16 3.25656 15.9789 3.2084 15.9368C3.10005 15.8435 3.08802 15.684 3.18132 15.5756C4.03609 14.5764 3.75317 12.7194 3.75016 12.7013C3.73812 12.6261 3.75919 12.5508 3.80734 12.4936C3.89764 12.3883 4.07522 12.3763 4.17755 12.4696C4.38823 12.6592 4.58688 12.8277 4.79154 12.9872C5.60719 13.6223 6.74788 13.6223 7.56654 12.9872C7.7712 12.8277 7.97286 12.6592 8.18053 12.4696C8.28286 12.3763 8.46043 12.3883 8.55073 12.4936C8.59888 12.5508 8.62296 12.6261 8.61092 12.7013C8.60791 12.7194 8.31897 14.5704 9.20986 15.5726C9.30317 15.678 9.29414 15.8405 9.1888 15.9338C9.08345 16.0271 8.92093 16.0181 8.82763 15.9127C8.12936 15.1272 8.03606 13.9744 8.05412 13.2611C7.99693 13.3063 7.94276 13.3514 7.88557 13.3936C6.88332 14.1701 5.48378 14.1701 4.48153 13.3936C4.42435 13.3484 4.37017 13.3063 4.31299 13.2611C4.33406 13.9744 4.24376 15.1272 3.57559 15.9097C3.51841 15.9699 3.44618 16 3.37394 16Z" fill="#003F3C"/>
<path d="M13.7027 15.9999H0.914213C0.772754 15.9999 0.658386 15.8856 0.658386 15.7441C0.658386 15.6027 0.772754 15.4883 0.914213 15.4883H13.7027C13.8441 15.4883 13.9585 15.6027 13.9585 15.7441C13.9585 15.8826 13.8441 15.9999 13.7027 15.9999Z" fill="#003F3C"/>
<path d="M3.01687 7.57573C2.97774 7.57573 2.94162 7.5667 2.9025 7.54864C2.77609 7.48543 2.72492 7.33194 2.78512 7.20553L2.9958 6.77814C3.059 6.65173 3.2125 6.59755 3.33891 6.66076C3.46532 6.72396 3.5195 6.87746 3.45629 7.00387L3.24561 7.43126C3.20347 7.52456 3.11318 7.57573 3.01687 7.57573Z" fill="#003F3C"/>
<path d="M3.92386 8.00017C3.91182 8.00017 3.89678 8.00017 3.88474 7.99716C3.74629 7.9761 3.64998 7.84367 3.67104 7.70522L3.77037 7.0521C3.79144 6.91064 3.92086 6.81433 4.06232 6.83841C4.20077 6.85948 4.29708 6.9919 4.27601 7.13035L4.17669 7.78347C4.15863 7.90988 4.05027 8.00017 3.92386 8.00017Z" fill="#003F3C"/>
<path d="M4.9786 7.78631C4.86423 7.78631 4.7619 7.71106 4.73181 7.59669L4.61141 7.13921C4.57529 7.00076 4.65656 6.86231 4.79501 6.82619C4.93346 6.79008 5.07191 6.87134 5.10803 7.00979L5.22841 7.46727C5.26453 7.60572 5.18327 7.74417 5.04482 7.78029C5.02375 7.78631 4.99967 7.78631 4.9786 7.78631Z" fill="#003F3C"/>
<path d="M0.256831 6.08886C0.238772 6.08886 0.217701 6.08585 0.199642 6.08284C0.0611933 6.05274 -0.0260873 5.91429 0.00702009 5.77584C0.849753 2.06782 4.14544 0.487694 5.13565 0.0934152C5.37041 0.000112655 5.62323 -0.0239654 5.87003 0.0241907C6.9385 0.234874 10.5623 1.22809 12.3892 5.16185C12.4494 5.29127 12.3922 5.44176 12.2658 5.50195C12.1364 5.56215 11.9829 5.50496 11.9257 5.37855C10.2011 1.6615 6.77898 0.725465 5.77071 0.526821C5.62022 0.496723 5.46673 0.511772 5.32527 0.568957C4.39224 0.942168 1.29219 2.42598 0.506641 5.89021C0.479554 6.00759 0.374211 6.08886 0.256831 6.08886Z" fill="#003F3C"/>
<path d="M9.94414 12.3099C9.88696 12.3099 9.82977 12.3069 9.77258 12.3009C9.24888 12.2467 8.81247 11.9187 8.60178 11.422C8.38207 10.9044 8.46334 10.3114 8.80946 9.87502L9.73947 8.70724C9.83579 8.58685 10.0435 8.58685 10.1398 8.70724L11.0698 9.87502C11.4159 10.3114 11.4972 10.9044 11.2775 11.422C11.0698 11.9187 10.6304 12.2467 10.1067 12.3009C10.0585 12.3069 10.0013 12.3099 9.94414 12.3099ZM9.94414 9.27909L9.21277 10.1971C8.98403 10.486 8.92985 10.8773 9.07432 11.2234C9.20975 11.5454 9.48966 11.7561 9.82375 11.7892C9.902 11.7983 9.98327 11.7983 10.0615 11.7892C10.3956 11.7561 10.6755 11.5424 10.811 11.2234C10.9554 10.8773 10.9043 10.483 10.6725 10.1941L9.94414 9.27909Z" fill="#003F3C"/>
<path d="M11.4258 11.5817C11.3686 11.5817 11.3114 11.5787 11.2542 11.5727C11.173 11.5637 11.0917 11.5486 10.9954 11.5215C10.9262 11.5004 10.869 11.4523 10.8389 11.3891C10.8058 11.3259 10.8028 11.2506 10.8268 11.1844C10.9532 10.8443 10.8961 10.4741 10.6733 10.1972L10.2008 9.6043C10.1346 9.51701 10.1286 9.40264 10.1827 9.30934C10.2159 9.25516 10.252 9.20099 10.2941 9.14681L11.2241 7.97902C11.3204 7.85562 11.5281 7.85562 11.6244 7.97902L12.5544 9.14681C12.9006 9.58323 12.9818 10.1761 12.7621 10.6938C12.5544 11.1904 12.115 11.5185 11.5913 11.5727C11.5402 11.5787 11.483 11.5817 11.4258 11.5817ZM11.3867 11.067C11.4378 11.07 11.492 11.067 11.5432 11.061C11.8772 11.0279 12.1572 10.8142 12.2926 10.4952C12.4371 10.1491 12.3859 9.75478 12.1541 9.46585L11.4228 8.54787L10.7185 9.42973L11.0706 9.87216C11.3475 10.2183 11.4559 10.6457 11.3867 11.067Z" fill="#003F3C"/>
</svg>
