<svg width="16" height="12" viewBox="0 0 16 12" fill="none" xmlns="http://www.w3.org/2000/svg">
<path d="M0.862485 7.01067C0.881297 7.01485 0.899064 7.02216 0.918921 7.02216H0.973006C0.983196 7.02242 0.992602 7.0253 1.00279 7.0253C1.00828 7.0253 1.01272 7.02242 1.01795 7.02216H1.06837C1.34873 9.52836 2.64677 11.3712 4.2539 11.3712H5.7816C5.78395 11.3712 5.78578 11.3699 5.78787 11.3699C6.94038 11.3662 7.9322 10.4151 8.50492 8.95276C9.07817 10.418 10.0726 11.3712 11.2277 11.3712H12.7554C12.7578 11.3712 12.7596 11.3699 12.7617 11.3699C14.5781 11.3644 16 9.00789 16 5.99978C16 2.98826 14.5747 0.628906 12.7552 0.628906C12.7392 0.628906 12.7238 0.632564 12.7079 0.632825H11.2275C10.0729 0.632825 9.07869 1.58493 8.50545 3.04888C7.93194 1.58284 6.93698 0.628906 5.78134 0.628906C5.7654 0.628906 5.74999 0.632564 5.73405 0.632825H4.25364C2.64624 0.632825 1.34847 2.47589 1.06811 4.98209H1.01769C1.0122 4.98183 1.00776 4.97896 1.00253 4.97896C0.992341 4.97896 0.982935 4.98183 0.972745 4.98209H0.91866C0.898541 4.98209 0.881036 4.98941 0.862224 4.99359C0.376243 5.06387 0 5.48688 0 6.00187C0.00026128 6.51737 0.376504 6.94039 0.862485 7.01067ZM1.6505 4.98235C1.9191 2.85423 3.00158 1.20764 4.2539 1.20764H4.29962C3.41885 1.94053 2.7808 3.31277 2.59425 4.98235C2.58354 5.07694 2.57622 5.17309 2.56838 5.26976C2.5608 5.36486 2.55401 5.46049 2.54957 5.55717C2.54252 5.70375 2.53651 5.85032 2.53651 6.00004C2.53651 6.15132 2.54251 6.29999 2.54983 6.44761C2.55453 6.54455 2.56133 6.63965 2.5689 6.73502C2.57648 6.83143 2.58406 6.92758 2.59477 7.02243C2.78237 8.69357 3.42277 10.0661 4.30563 10.7969H4.2539C3.00158 10.7969 1.9191 9.15029 1.6505 7.02243C1.63849 6.92784 1.62986 6.83169 1.62124 6.73502C1.61262 6.63965 1.60348 6.54455 1.59825 6.44761C1.59041 6.30051 1.58518 6.15236 1.58518 6.00239C1.58518 5.85241 1.59041 5.70401 1.59825 5.55717C1.60348 5.46023 1.61262 5.36539 1.62124 5.26976C1.62986 5.17309 1.63849 5.07694 1.6505 4.98235ZM11.2277 1.20764H11.2737C10.2194 2.08476 9.51059 3.87844 9.51059 6.00004C9.51059 8.12555 10.2223 9.92133 11.2795 10.7966H11.2277C10.169 10.7966 9.23285 9.61876 8.80539 7.96983C8.74216 7.72553 8.69095 7.47104 8.65124 7.2082C8.64183 7.14653 8.6319 7.08487 8.62407 7.02216C8.61205 6.92758 8.60343 6.83143 8.5948 6.73476C8.58618 6.63939 8.57704 6.54428 8.57181 6.44735C8.56397 6.30025 8.55875 6.1521 8.55875 6.00213C8.55875 5.85215 8.56371 5.70374 8.57181 5.55691C8.57704 5.45997 8.58644 5.36513 8.5948 5.2695C8.60343 5.17309 8.61205 5.07693 8.62407 4.98209C8.63217 4.9186 8.64236 4.85641 8.65176 4.79345C8.69148 4.53086 8.74295 4.27637 8.80618 4.03208C9.2339 2.38418 10.1695 1.20764 11.2277 1.20764ZM12.7554 10.7958C11.3082 10.7958 10.0857 8.59951 10.0857 6.00004C10.0857 3.42486 11.2857 1.24892 12.7149 1.20764C12.7285 1.20712 12.7418 1.20372 12.7554 1.20372C12.7599 1.20372 12.764 1.20503 12.7682 1.20503C14.21 1.21809 15.4252 3.40814 15.4252 6.00004C15.4252 8.59951 14.2027 10.7958 12.7554 10.7958ZM6.07842 6.44735V6.45048C6.06849 6.45048 6.05934 6.44813 6.04941 6.44735C6.03113 6.44604 6.01231 6.44526 5.99481 6.4416C5.91277 6.42436 5.83961 6.38229 5.78186 6.32376C5.70139 6.24224 5.65122 6.12859 5.65122 6.00239C5.65122 5.87619 5.70165 5.76227 5.78186 5.68102C5.83961 5.62223 5.91277 5.58016 5.99481 5.56318C6.01257 5.55926 6.03113 5.55847 6.04941 5.55743C6.05934 5.55664 6.06849 5.55429 6.07842 5.55429V5.55743H7.99726C7.9902 5.70453 7.98419 5.85215 7.98419 6.00265C7.98419 6.15315 7.9902 6.30103 7.99726 6.44787H6.07842V6.44735ZM8.04193 4.98235H6.09331C6.08782 4.98209 6.08338 4.97922 6.07816 4.97922C6.06797 4.97922 6.05856 4.98209 6.04837 4.98235H5.99428C5.97416 4.98235 5.95666 4.98967 5.93785 4.99385C5.88376 5.00142 5.83203 5.01397 5.78134 5.03043C5.37401 5.16028 5.07562 5.54436 5.07562 6.00239C5.07562 6.46041 5.37401 6.84449 5.78134 6.97435C5.83229 6.99081 5.88402 7.00309 5.93785 7.01093C5.95666 7.01511 5.97443 7.02243 5.99428 7.02243H6.04837C6.05856 7.02269 6.06797 7.02556 6.07816 7.02556C6.08364 7.02556 6.08782 7.02269 6.09331 7.02243H8.04193C8.07878 7.35112 8.13417 7.66674 8.20419 7.96983C7.77648 9.61876 6.84031 10.7961 5.7816 10.7961C4.52903 10.7961 3.44628 9.15003 3.17716 7.02243C3.16515 6.92784 3.15652 6.83169 3.1479 6.73502C3.13928 6.63965 3.13013 6.54455 3.12465 6.44761C3.11655 6.29999 3.11158 6.15079 3.11158 6.00004C3.11158 5.85084 3.11681 5.70322 3.12439 5.55717C3.12961 5.46023 3.13876 5.36539 3.14738 5.26976C3.156 5.17335 3.16462 5.0772 3.17638 4.98235C3.44158 2.87565 4.50473 1.24317 5.74084 1.20764C5.75443 1.20712 5.76775 1.20372 5.78134 1.20372C5.78578 1.20372 5.78996 1.20503 5.79414 1.20503C6.84815 1.21444 7.77883 2.38889 8.20445 4.03208C8.13443 4.33594 8.07878 4.65288 8.04193 4.98235ZM0.918921 5.56292C0.936688 5.559 0.955239 5.55821 0.973529 5.55717C0.983457 5.55638 0.992602 5.55403 1.00253 5.55403V5.55717H1.02317C1.01612 5.70427 1.01011 5.85189 1.01011 6.00239C1.01011 6.15289 1.01612 6.30077 1.02317 6.44761H1.00253V6.45075C0.992602 6.45075 0.983457 6.4484 0.973529 6.44761C0.955239 6.44631 0.936427 6.44552 0.918921 6.44186C0.722961 6.4011 0.575077 6.21951 0.575077 6.00239C0.575338 5.785 0.723222 5.60368 0.918921 5.56292Z" fill="#003F3C"/>
<path d="M14.5502 5.06223C14.3291 3.79398 13.6676 2.89648 12.8646 2.89648C12.8278 2.89648 12.792 2.90197 12.7557 2.90589C11.819 3.0023 11.1002 4.32438 11.1002 5.99997C11.1002 7.67529 11.8193 8.99737 12.7557 9.09379C12.792 9.0977 12.8278 9.10319 12.8646 9.10319C13.6665 9.10319 14.3273 8.20778 14.5491 6.94214C14.9152 6.79269 15.1751 6.42847 15.1751 6.00206C15.1749 5.57591 14.9152 5.21195 14.5502 5.06223ZM12.8646 8.52838C12.8286 8.52838 12.7923 8.52367 12.7557 8.51531C12.224 8.39277 11.675 7.39416 11.675 5.99971C11.675 4.60525 12.2242 3.60638 12.7557 3.48384C12.7923 3.47548 12.8286 3.47078 12.8646 3.47078C13.2884 3.47078 13.748 4.05996 13.9497 4.98698L12.8262 4.9815L12.7557 5.06171L12.7397 5.07974C12.7118 5.11136 12.4683 5.40425 12.4683 5.95973C12.4683 6.4917 12.6883 6.85043 12.7134 6.88989L12.7557 6.95573L12.7988 7.02288L13.9487 7.01739C13.7467 7.94154 13.2877 8.52838 12.8646 8.52838ZM14.3242 6.41331C14.2792 6.43055 14.2311 6.44153 14.1802 6.44153L14.0339 6.44231L13.1351 6.44649C13.092 6.33649 13.0431 6.16614 13.0431 5.95999C13.0431 5.77291 13.0823 5.63966 13.1176 5.55788L14.0341 5.56232L14.1815 5.56311C14.2319 5.56311 14.2795 5.57408 14.3244 5.59107C14.4848 5.65273 14.6001 5.81315 14.6001 6.00232C14.6001 6.19122 14.4848 6.35165 14.3242 6.41331Z" fill="#003F3C"/>
</svg>
